<mxfile host="app.diagrams.net" modified="2023-09-22T19:02:29.515Z" agent="Mozilla/5.0 (Windows NT 10.0; Win64; x64) AppleWebKit/537.36 (KHTML, like Gecko) Chrome/116.0.0.0 Safari/537.36 OPR/102.0.0.0" etag="ZQVs2G9xvUdez-skBoZe" version="21.8.1" type="google">
  <diagram name="Página-1" id="-vGyC4DIGq6Al4wwbThD">
    <mxGraphModel grid="1" page="1" gridSize="10" guides="1" tooltips="1" connect="1" arrows="1" fold="1" pageScale="1" pageWidth="827" pageHeight="1169" math="0" shadow="0">
      <root>
        <mxCell id="0" />
        <mxCell id="1" parent="0" />
        <mxCell id="nXuBNPTSIWch-IA69Y4a-2" value="«Control»&#xa;CRTManterUsuario" style="swimlane;fontStyle=0;childLayout=stackLayout;horizontal=1;startSize=30;fillColor=none;horizontalStack=0;resizeParent=1;resizeParentMax=0;resizeLast=0;collapsible=1;marginBottom=0;" vertex="1" parent="1">
          <mxGeometry x="290" y="20" width="119" height="90" as="geometry">
            <mxRectangle x="470" y="300" width="150" height="40" as="alternateBounds" />
          </mxGeometry>
        </mxCell>
        <mxCell id="nXuBNPTSIWch-IA69Y4a-56" value="alterar ( )&#xa;buscar ( )&#xa;salvar ( )&#xa;evadir ( )" style="text;strokeColor=#212121;fillColor=none;align=left;verticalAlign=middle;spacingLeft=4;spacingRight=4;overflow=hidden;points=[[0,0.5],[1,0.5]];portConstraint=eastwest;rotatable=0;" vertex="1" parent="nXuBNPTSIWch-IA69Y4a-2">
          <mxGeometry y="30" width="119" height="60" as="geometry" />
        </mxCell>
        <mxCell id="nXuBNPTSIWch-IA69Y4a-9" value="«Boundary»&lt;br&gt;&lt;b&gt;Frm&lt;/b&gt;" style="html=1;" vertex="1" parent="1">
          <mxGeometry x="10" y="20" width="130" height="50" as="geometry" />
        </mxCell>
        <mxCell id="nXuBNPTSIWch-IA69Y4a-16" value="" style="endArrow=none;html=1;rounded=0;" edge="1" parent="1" source="nXuBNPTSIWch-IA69Y4a-44" target="nXuBNPTSIWch-IA69Y4a-2">
          <mxGeometry width="50" height="50" relative="1" as="geometry">
            <mxPoint x="460" y="210" as="sourcePoint" />
            <mxPoint x="459.03999999999996" y="112.00999999999999" as="targetPoint" />
          </mxGeometry>
        </mxCell>
        <mxCell id="nXuBNPTSIWch-IA69Y4a-26" value="" style="endArrow=none;html=1;rounded=0;entryX=0;entryY=0.25;entryDx=0;entryDy=0;" edge="1" parent="1" source="nXuBNPTSIWch-IA69Y4a-9" target="nXuBNPTSIWch-IA69Y4a-2">
          <mxGeometry width="50" height="50" relative="1" as="geometry">
            <mxPoint x="270" y="110" as="sourcePoint" />
            <mxPoint x="300" y="25" as="targetPoint" />
          </mxGeometry>
        </mxCell>
        <mxCell id="nXuBNPTSIWch-IA69Y4a-41" value="«Entity»&#xa;Paciente" style="swimlane;fontStyle=0;childLayout=stackLayout;horizontal=1;startSize=30;horizontalStack=0;resizeParent=1;resizeParentMax=0;resizeLast=0;collapsible=1;marginBottom=0;strokeColor=#212121;" collapsed="1" vertex="1" parent="1">
          <mxGeometry x="10" y="227" width="90" height="30" as="geometry">
            <mxRectangle x="560" y="901" width="189" height="330" as="alternateBounds" />
          </mxGeometry>
        </mxCell>
        <mxCell id="nXuBNPTSIWch-IA69Y4a-42" value="- idPac&#xa;- dtNascPac&#xa;- rgPac&#xa;- cpfPac&#xa;- nomePac&#xa;- endPac&#xa;- numPac&#xa;- complementoPac&#xa;- bairroPac&#xa;- estadoPac&#xa;- cidadePac&#xa;- cepPac&#xa;- telPac&#xa;- cartaoSusPac&#xa;- numConvenioPac&#xa;- tipoConvenioPac&#xa;- alergiasPac&#xa;- classifRiscoPac" style="text;strokeColor=#212121;fillColor=none;align=left;verticalAlign=middle;spacingLeft=4;spacingRight=4;overflow=hidden;points=[[0,0.5],[1,0.5]];portConstraint=eastwest;rotatable=0;" vertex="1" parent="nXuBNPTSIWch-IA69Y4a-41">
          <mxGeometry y="30" width="189" height="270" as="geometry" />
        </mxCell>
        <mxCell id="nXuBNPTSIWch-IA69Y4a-43" value="- calcIdade( )" style="text;strokeColor=#212121;fillColor=none;align=left;verticalAlign=middle;spacingLeft=4;spacingRight=4;overflow=hidden;points=[[0,0.5],[1,0.5]];portConstraint=eastwest;rotatable=0;" vertex="1" parent="nXuBNPTSIWch-IA69Y4a-41">
          <mxGeometry y="300" width="189" height="30" as="geometry" />
        </mxCell>
        <mxCell id="nXuBNPTSIWch-IA69Y4a-44" value="«Entity»&#xa;Atendimento" style="swimlane;fontStyle=0;childLayout=stackLayout;horizontal=1;startSize=30;horizontalStack=0;resizeParent=1;resizeParentMax=0;resizeLast=0;collapsible=1;marginBottom=0;strokeColor=#212121;" collapsed="1" vertex="1" parent="1">
          <mxGeometry x="294.5" y="227" width="110" height="30" as="geometry">
            <mxRectangle x="277" y="847.5" width="189" height="310" as="alternateBounds" />
          </mxGeometry>
        </mxCell>
        <mxCell id="nXuBNPTSIWch-IA69Y4a-45" value="- senhaAtend&#xa;- dtAtend&#xa;- entradaHospAtend&#xa;- saidaHospAtend&#xa;- inicioAtend&#xa;- fimAtend&#xa;- dtAlta" style="text;strokeColor=#212121;fillColor=none;align=left;verticalAlign=middle;spacingLeft=4;spacingRight=4;overflow=hidden;points=[[0,0.5],[1,0.5]];portConstraint=eastwest;rotatable=0;" vertex="1" parent="nXuBNPTSIWch-IA69Y4a-44">
          <mxGeometry y="30" width="189" height="110" as="geometry" />
        </mxCell>
        <mxCell id="nXuBNPTSIWch-IA69Y4a-46" value="+ tempParaAtend ( )&#xa;+ tempAtend ( )&#xa;+ isAltaAtend ( )&#xa;+ filaRecepcao ( )&#xa;+ filaTriagem ( )&#xa;+ filaAtendimento ( )&#xa;+ filaEspecialidade ( )&#xa;+ filaMedicacao ( )&#xa;+ filaExames ( ) &#xa;+ filaInternacao ( )&#xa;+ filaCirurgia ( )" style="text;strokeColor=#212121;fillColor=none;align=left;verticalAlign=middle;spacingLeft=4;spacingRight=4;overflow=hidden;points=[[0,0.5],[1,0.5]];portConstraint=eastwest;rotatable=0;" vertex="1" parent="nXuBNPTSIWch-IA69Y4a-44">
          <mxGeometry y="140" width="189" height="170" as="geometry" />
        </mxCell>
        <mxCell id="nXuBNPTSIWch-IA69Y4a-47" value="«Entity»&#xa;Funcionário" style="swimlane;fontStyle=0;childLayout=stackLayout;horizontal=1;startSize=30;horizontalStack=0;resizeParent=1;resizeParentMax=0;resizeLast=0;collapsible=1;marginBottom=0;strokeColor=#212121;" collapsed="1" vertex="1" parent="1">
          <mxGeometry x="10" y="140" width="100" height="30" as="geometry">
            <mxRectangle x="10" y="585" width="189" height="280" as="alternateBounds" />
          </mxGeometry>
        </mxCell>
        <mxCell id="nXuBNPTSIWch-IA69Y4a-48" value="- idFunc&#xa;- dtNascFunc&#xa;- rgFunc&#xa;- cpfFunc&#xa;- nomeFunc&#xa;- endFunc&#xa;- numFunc&#xa;- complementoFunc&#xa;- bairroFunc&#xa;- estadoFunc&#xa;- cidadeFunc&#xa;- cepFunc&#xa;- telFunc&#xa;- contratacaoFunc" style="text;strokeColor=#212121;fillColor=none;align=left;verticalAlign=middle;spacingLeft=4;spacingRight=4;overflow=hidden;points=[[0,0.5],[1,0.5]];portConstraint=eastwest;rotatable=0;" vertex="1" parent="nXuBNPTSIWch-IA69Y4a-47">
          <mxGeometry y="30" width="189" height="210" as="geometry" />
        </mxCell>
        <mxCell id="nXuBNPTSIWch-IA69Y4a-49" value="- anosServ( )&#xa;- calcIdade( )" style="text;strokeColor=#212121;fillColor=none;align=left;verticalAlign=middle;spacingLeft=4;spacingRight=4;overflow=hidden;points=[[0,0.5],[1,0.5]];portConstraint=eastwest;rotatable=0;" vertex="1" parent="nXuBNPTSIWch-IA69Y4a-47">
          <mxGeometry y="240" width="189" height="40" as="geometry" />
        </mxCell>
        <mxCell id="nXuBNPTSIWch-IA69Y4a-50" value="" style="endArrow=none;html=1;rounded=0;edgeStyle=orthogonalEdgeStyle;" edge="1" parent="1" source="nXuBNPTSIWch-IA69Y4a-47" target="nXuBNPTSIWch-IA69Y4a-44">
          <mxGeometry width="50" height="50" relative="1" as="geometry">
            <mxPoint x="449" y="533.5" as="sourcePoint" />
            <mxPoint x="499" y="483.5" as="targetPoint" />
            <Array as="points">
              <mxPoint x="169" y="155" />
              <mxPoint x="169" y="242" />
            </Array>
          </mxGeometry>
        </mxCell>
        <mxCell id="nXuBNPTSIWch-IA69Y4a-51" value="" style="endArrow=none;html=1;rounded=0;" edge="1" parent="1" source="nXuBNPTSIWch-IA69Y4a-44" target="nXuBNPTSIWch-IA69Y4a-41">
          <mxGeometry width="50" height="50" relative="1" as="geometry">
            <mxPoint x="618.0000000000002" y="542.125" as="sourcePoint" />
            <mxPoint x="699" y="574.375" as="targetPoint" />
          </mxGeometry>
        </mxCell>
        <mxCell id="nXuBNPTSIWch-IA69Y4a-52" value="1" style="text;html=1;align=center;verticalAlign=middle;resizable=0;points=[];autosize=1;strokeColor=none;fillColor=none;" vertex="1" parent="1">
          <mxGeometry x="96" y="220" width="30" height="30" as="geometry" />
        </mxCell>
        <mxCell id="nXuBNPTSIWch-IA69Y4a-53" value="1" style="text;html=1;align=center;verticalAlign=middle;resizable=0;points=[];autosize=1;strokeColor=none;fillColor=none;" vertex="1" parent="1">
          <mxGeometry x="105" y="131" width="30" height="30" as="geometry" />
        </mxCell>
        <mxCell id="nXuBNPTSIWch-IA69Y4a-55" value="*" style="text;html=1;align=center;verticalAlign=middle;resizable=0;points=[];autosize=1;strokeColor=none;fillColor=none;" vertex="1" parent="1">
          <mxGeometry x="264.5" y="221" width="30" height="30" as="geometry" />
        </mxCell>
        <mxCell id="nXuBNPTSIWch-IA69Y4a-57" value="«Control»&#xa;CRTEntrarPacFila" style="swimlane;fontStyle=0;childLayout=stackLayout;horizontal=1;startSize=30;fillColor=none;horizontalStack=0;resizeParent=1;resizeParentMax=0;resizeLast=0;collapsible=1;marginBottom=0;" vertex="1" parent="1">
          <mxGeometry x="706" y="20" width="119" height="90" as="geometry">
            <mxRectangle x="470" y="300" width="150" height="40" as="alternateBounds" />
          </mxGeometry>
        </mxCell>
        <mxCell id="nXuBNPTSIWch-IA69Y4a-58" value="alterar ( )&#xa;buscar ( )&#xa;salvar ( )&#xa;evadir ( )" style="text;strokeColor=#212121;fillColor=none;align=left;verticalAlign=middle;spacingLeft=4;spacingRight=4;overflow=hidden;points=[[0,0.5],[1,0.5]];portConstraint=eastwest;rotatable=0;" vertex="1" parent="nXuBNPTSIWch-IA69Y4a-57">
          <mxGeometry y="30" width="119" height="60" as="geometry" />
        </mxCell>
        <mxCell id="nXuBNPTSIWch-IA69Y4a-59" value="«Boundary»&lt;br&gt;&lt;b&gt;Frm&lt;/b&gt;" style="html=1;" vertex="1" parent="1">
          <mxGeometry x="426" y="20" width="130" height="50" as="geometry" />
        </mxCell>
        <mxCell id="nXuBNPTSIWch-IA69Y4a-60" value="" style="endArrow=none;html=1;rounded=0;" edge="1" parent="1" source="nXuBNPTSIWch-IA69Y4a-65" target="nXuBNPTSIWch-IA69Y4a-57">
          <mxGeometry width="50" height="50" relative="1" as="geometry">
            <mxPoint x="876" y="210" as="sourcePoint" />
            <mxPoint x="875.04" y="112.00999999999999" as="targetPoint" />
          </mxGeometry>
        </mxCell>
        <mxCell id="nXuBNPTSIWch-IA69Y4a-61" value="" style="endArrow=none;html=1;rounded=0;entryX=0;entryY=0.25;entryDx=0;entryDy=0;" edge="1" parent="1" source="nXuBNPTSIWch-IA69Y4a-59" target="nXuBNPTSIWch-IA69Y4a-57">
          <mxGeometry width="50" height="50" relative="1" as="geometry">
            <mxPoint x="686" y="110" as="sourcePoint" />
            <mxPoint x="716" y="25" as="targetPoint" />
          </mxGeometry>
        </mxCell>
        <mxCell id="nXuBNPTSIWch-IA69Y4a-62" value="«Entity»&#xa;Paciente" style="swimlane;fontStyle=0;childLayout=stackLayout;horizontal=1;startSize=30;horizontalStack=0;resizeParent=1;resizeParentMax=0;resizeLast=0;collapsible=1;marginBottom=0;strokeColor=#212121;" collapsed="1" vertex="1" parent="1">
          <mxGeometry x="426" y="227" width="90" height="30" as="geometry">
            <mxRectangle x="560" y="901" width="189" height="330" as="alternateBounds" />
          </mxGeometry>
        </mxCell>
        <mxCell id="nXuBNPTSIWch-IA69Y4a-63" value="- idPac&#xa;- dtNascPac&#xa;- rgPac&#xa;- cpfPac&#xa;- nomePac&#xa;- endPac&#xa;- numPac&#xa;- complementoPac&#xa;- bairroPac&#xa;- estadoPac&#xa;- cidadePac&#xa;- cepPac&#xa;- telPac&#xa;- cartaoSusPac&#xa;- numConvenioPac&#xa;- tipoConvenioPac&#xa;- alergiasPac&#xa;- classifRiscoPac" style="text;strokeColor=#212121;fillColor=none;align=left;verticalAlign=middle;spacingLeft=4;spacingRight=4;overflow=hidden;points=[[0,0.5],[1,0.5]];portConstraint=eastwest;rotatable=0;" vertex="1" parent="nXuBNPTSIWch-IA69Y4a-62">
          <mxGeometry y="30" width="189" height="270" as="geometry" />
        </mxCell>
        <mxCell id="nXuBNPTSIWch-IA69Y4a-64" value="- calcIdade( )" style="text;strokeColor=#212121;fillColor=none;align=left;verticalAlign=middle;spacingLeft=4;spacingRight=4;overflow=hidden;points=[[0,0.5],[1,0.5]];portConstraint=eastwest;rotatable=0;" vertex="1" parent="nXuBNPTSIWch-IA69Y4a-62">
          <mxGeometry y="300" width="189" height="30" as="geometry" />
        </mxCell>
        <mxCell id="nXuBNPTSIWch-IA69Y4a-65" value="«Entity»&#xa;Atendimento" style="swimlane;fontStyle=0;childLayout=stackLayout;horizontal=1;startSize=30;horizontalStack=0;resizeParent=1;resizeParentMax=0;resizeLast=0;collapsible=1;marginBottom=0;strokeColor=#212121;" collapsed="1" vertex="1" parent="1">
          <mxGeometry x="710.5" y="227" width="110" height="30" as="geometry">
            <mxRectangle x="277" y="847.5" width="189" height="310" as="alternateBounds" />
          </mxGeometry>
        </mxCell>
        <mxCell id="nXuBNPTSIWch-IA69Y4a-66" value="- senhaAtend&#xa;- dtAtend&#xa;- entradaHospAtend&#xa;- saidaHospAtend&#xa;- inicioAtend&#xa;- fimAtend&#xa;- dtAlta" style="text;strokeColor=#212121;fillColor=none;align=left;verticalAlign=middle;spacingLeft=4;spacingRight=4;overflow=hidden;points=[[0,0.5],[1,0.5]];portConstraint=eastwest;rotatable=0;" vertex="1" parent="nXuBNPTSIWch-IA69Y4a-65">
          <mxGeometry y="30" width="189" height="110" as="geometry" />
        </mxCell>
        <mxCell id="nXuBNPTSIWch-IA69Y4a-67" value="+ tempParaAtend ( )&#xa;+ tempAtend ( )&#xa;+ isAltaAtend ( )&#xa;+ filaRecepcao ( )&#xa;+ filaTriagem ( )&#xa;+ filaAtendimento ( )&#xa;+ filaEspecialidade ( )&#xa;+ filaMedicacao ( )&#xa;+ filaExames ( ) &#xa;+ filaInternacao ( )&#xa;+ filaCirurgia ( )" style="text;strokeColor=#212121;fillColor=none;align=left;verticalAlign=middle;spacingLeft=4;spacingRight=4;overflow=hidden;points=[[0,0.5],[1,0.5]];portConstraint=eastwest;rotatable=0;" vertex="1" parent="nXuBNPTSIWch-IA69Y4a-65">
          <mxGeometry y="140" width="189" height="170" as="geometry" />
        </mxCell>
        <mxCell id="nXuBNPTSIWch-IA69Y4a-68" value="«Entity»&#xa;Funcionário" style="swimlane;fontStyle=0;childLayout=stackLayout;horizontal=1;startSize=30;horizontalStack=0;resizeParent=1;resizeParentMax=0;resizeLast=0;collapsible=1;marginBottom=0;strokeColor=#212121;" collapsed="1" vertex="1" parent="1">
          <mxGeometry x="426" y="140" width="100" height="30" as="geometry">
            <mxRectangle x="10" y="585" width="189" height="280" as="alternateBounds" />
          </mxGeometry>
        </mxCell>
        <mxCell id="nXuBNPTSIWch-IA69Y4a-69" value="- idFunc&#xa;- dtNascFunc&#xa;- rgFunc&#xa;- cpfFunc&#xa;- nomeFunc&#xa;- endFunc&#xa;- numFunc&#xa;- complementoFunc&#xa;- bairroFunc&#xa;- estadoFunc&#xa;- cidadeFunc&#xa;- cepFunc&#xa;- telFunc&#xa;- contratacaoFunc" style="text;strokeColor=#212121;fillColor=none;align=left;verticalAlign=middle;spacingLeft=4;spacingRight=4;overflow=hidden;points=[[0,0.5],[1,0.5]];portConstraint=eastwest;rotatable=0;" vertex="1" parent="nXuBNPTSIWch-IA69Y4a-68">
          <mxGeometry y="30" width="189" height="210" as="geometry" />
        </mxCell>
        <mxCell id="nXuBNPTSIWch-IA69Y4a-70" value="- anosServ( )&#xa;- calcIdade( )" style="text;strokeColor=#212121;fillColor=none;align=left;verticalAlign=middle;spacingLeft=4;spacingRight=4;overflow=hidden;points=[[0,0.5],[1,0.5]];portConstraint=eastwest;rotatable=0;" vertex="1" parent="nXuBNPTSIWch-IA69Y4a-68">
          <mxGeometry y="240" width="189" height="40" as="geometry" />
        </mxCell>
        <mxCell id="nXuBNPTSIWch-IA69Y4a-71" value="" style="endArrow=none;html=1;rounded=0;edgeStyle=orthogonalEdgeStyle;" edge="1" parent="1" source="nXuBNPTSIWch-IA69Y4a-68" target="nXuBNPTSIWch-IA69Y4a-65">
          <mxGeometry width="50" height="50" relative="1" as="geometry">
            <mxPoint x="865" y="533.5" as="sourcePoint" />
            <mxPoint x="915" y="483.5" as="targetPoint" />
            <Array as="points">
              <mxPoint x="585" y="155" />
              <mxPoint x="585" y="242" />
            </Array>
          </mxGeometry>
        </mxCell>
        <mxCell id="nXuBNPTSIWch-IA69Y4a-72" value="" style="endArrow=none;html=1;rounded=0;" edge="1" parent="1" source="nXuBNPTSIWch-IA69Y4a-65" target="nXuBNPTSIWch-IA69Y4a-62">
          <mxGeometry width="50" height="50" relative="1" as="geometry">
            <mxPoint x="1034.0000000000002" y="542.125" as="sourcePoint" />
            <mxPoint x="1115" y="574.375" as="targetPoint" />
          </mxGeometry>
        </mxCell>
        <mxCell id="nXuBNPTSIWch-IA69Y4a-73" value="1" style="text;html=1;align=center;verticalAlign=middle;resizable=0;points=[];autosize=1;strokeColor=none;fillColor=none;" vertex="1" parent="1">
          <mxGeometry x="512" y="220" width="30" height="30" as="geometry" />
        </mxCell>
        <mxCell id="nXuBNPTSIWch-IA69Y4a-74" value="1" style="text;html=1;align=center;verticalAlign=middle;resizable=0;points=[];autosize=1;strokeColor=none;fillColor=none;" vertex="1" parent="1">
          <mxGeometry x="521" y="131" width="30" height="30" as="geometry" />
        </mxCell>
        <mxCell id="nXuBNPTSIWch-IA69Y4a-75" value="*" style="text;html=1;align=center;verticalAlign=middle;resizable=0;points=[];autosize=1;strokeColor=none;fillColor=none;" vertex="1" parent="1">
          <mxGeometry x="680.5" y="221" width="30" height="30" as="geometry" />
        </mxCell>
        <mxCell id="nXuBNPTSIWch-IA69Y4a-76" value="«Control»&#xa;CRTEscolherUnidade" style="swimlane;fontStyle=0;childLayout=stackLayout;horizontal=1;startSize=30;fillColor=none;horizontalStack=0;resizeParent=1;resizeParentMax=0;resizeLast=0;collapsible=1;marginBottom=0;" vertex="1" parent="1">
          <mxGeometry x="291" y="282" width="119" height="90" as="geometry">
            <mxRectangle x="470" y="300" width="150" height="40" as="alternateBounds" />
          </mxGeometry>
        </mxCell>
        <mxCell id="nXuBNPTSIWch-IA69Y4a-77" value="alterar ( )&#xa;buscar ( )&#xa;salvar ( )&#xa;evadir ( )" style="text;strokeColor=#212121;fillColor=none;align=left;verticalAlign=middle;spacingLeft=4;spacingRight=4;overflow=hidden;points=[[0,0.5],[1,0.5]];portConstraint=eastwest;rotatable=0;" vertex="1" parent="nXuBNPTSIWch-IA69Y4a-76">
          <mxGeometry y="30" width="119" height="60" as="geometry" />
        </mxCell>
        <mxCell id="nXuBNPTSIWch-IA69Y4a-78" value="«Boundary»&lt;br&gt;&lt;b&gt;Frm&lt;/b&gt;" style="html=1;" vertex="1" parent="1">
          <mxGeometry x="11" y="282" width="130" height="50" as="geometry" />
        </mxCell>
        <mxCell id="nXuBNPTSIWch-IA69Y4a-79" value="" style="endArrow=none;html=1;rounded=0;" edge="1" parent="1" source="nXuBNPTSIWch-IA69Y4a-84" target="nXuBNPTSIWch-IA69Y4a-76">
          <mxGeometry width="50" height="50" relative="1" as="geometry">
            <mxPoint x="461" y="472" as="sourcePoint" />
            <mxPoint x="460.03999999999996" y="374.01" as="targetPoint" />
          </mxGeometry>
        </mxCell>
        <mxCell id="nXuBNPTSIWch-IA69Y4a-80" value="" style="endArrow=none;html=1;rounded=0;entryX=0;entryY=0.25;entryDx=0;entryDy=0;" edge="1" parent="1" source="nXuBNPTSIWch-IA69Y4a-78" target="nXuBNPTSIWch-IA69Y4a-76">
          <mxGeometry width="50" height="50" relative="1" as="geometry">
            <mxPoint x="271" y="372" as="sourcePoint" />
            <mxPoint x="301" y="287" as="targetPoint" />
          </mxGeometry>
        </mxCell>
        <mxCell id="nXuBNPTSIWch-IA69Y4a-81" value="«Entity»&#xa;Paciente" style="swimlane;fontStyle=0;childLayout=stackLayout;horizontal=1;startSize=30;horizontalStack=0;resizeParent=1;resizeParentMax=0;resizeLast=0;collapsible=1;marginBottom=0;strokeColor=#212121;" collapsed="1" vertex="1" parent="1">
          <mxGeometry x="11" y="489" width="90" height="30" as="geometry">
            <mxRectangle x="560" y="901" width="189" height="330" as="alternateBounds" />
          </mxGeometry>
        </mxCell>
        <mxCell id="nXuBNPTSIWch-IA69Y4a-82" value="- idPac&#xa;- dtNascPac&#xa;- rgPac&#xa;- cpfPac&#xa;- nomePac&#xa;- endPac&#xa;- numPac&#xa;- complementoPac&#xa;- bairroPac&#xa;- estadoPac&#xa;- cidadePac&#xa;- cepPac&#xa;- telPac&#xa;- cartaoSusPac&#xa;- numConvenioPac&#xa;- tipoConvenioPac&#xa;- alergiasPac&#xa;- classifRiscoPac" style="text;strokeColor=#212121;fillColor=none;align=left;verticalAlign=middle;spacingLeft=4;spacingRight=4;overflow=hidden;points=[[0,0.5],[1,0.5]];portConstraint=eastwest;rotatable=0;" vertex="1" parent="nXuBNPTSIWch-IA69Y4a-81">
          <mxGeometry y="30" width="189" height="270" as="geometry" />
        </mxCell>
        <mxCell id="nXuBNPTSIWch-IA69Y4a-83" value="- calcIdade( )" style="text;strokeColor=#212121;fillColor=none;align=left;verticalAlign=middle;spacingLeft=4;spacingRight=4;overflow=hidden;points=[[0,0.5],[1,0.5]];portConstraint=eastwest;rotatable=0;" vertex="1" parent="nXuBNPTSIWch-IA69Y4a-81">
          <mxGeometry y="300" width="189" height="30" as="geometry" />
        </mxCell>
        <mxCell id="nXuBNPTSIWch-IA69Y4a-84" value="«Entity»&#xa;Atendimento" style="swimlane;fontStyle=0;childLayout=stackLayout;horizontal=1;startSize=30;horizontalStack=0;resizeParent=1;resizeParentMax=0;resizeLast=0;collapsible=1;marginBottom=0;strokeColor=#212121;" collapsed="1" vertex="1" parent="1">
          <mxGeometry x="295.5" y="489" width="110" height="30" as="geometry">
            <mxRectangle x="277" y="847.5" width="189" height="310" as="alternateBounds" />
          </mxGeometry>
        </mxCell>
        <mxCell id="nXuBNPTSIWch-IA69Y4a-85" value="- senhaAtend&#xa;- dtAtend&#xa;- entradaHospAtend&#xa;- saidaHospAtend&#xa;- inicioAtend&#xa;- fimAtend&#xa;- dtAlta" style="text;strokeColor=#212121;fillColor=none;align=left;verticalAlign=middle;spacingLeft=4;spacingRight=4;overflow=hidden;points=[[0,0.5],[1,0.5]];portConstraint=eastwest;rotatable=0;" vertex="1" parent="nXuBNPTSIWch-IA69Y4a-84">
          <mxGeometry y="30" width="189" height="110" as="geometry" />
        </mxCell>
        <mxCell id="nXuBNPTSIWch-IA69Y4a-86" value="+ tempParaAtend ( )&#xa;+ tempAtend ( )&#xa;+ isAltaAtend ( )&#xa;+ filaRecepcao ( )&#xa;+ filaTriagem ( )&#xa;+ filaAtendimento ( )&#xa;+ filaEspecialidade ( )&#xa;+ filaMedicacao ( )&#xa;+ filaExames ( ) &#xa;+ filaInternacao ( )&#xa;+ filaCirurgia ( )" style="text;strokeColor=#212121;fillColor=none;align=left;verticalAlign=middle;spacingLeft=4;spacingRight=4;overflow=hidden;points=[[0,0.5],[1,0.5]];portConstraint=eastwest;rotatable=0;" vertex="1" parent="nXuBNPTSIWch-IA69Y4a-84">
          <mxGeometry y="140" width="189" height="170" as="geometry" />
        </mxCell>
        <mxCell id="nXuBNPTSIWch-IA69Y4a-87" value="«Entity»&#xa;Funcionário" style="swimlane;fontStyle=0;childLayout=stackLayout;horizontal=1;startSize=30;horizontalStack=0;resizeParent=1;resizeParentMax=0;resizeLast=0;collapsible=1;marginBottom=0;strokeColor=#212121;" collapsed="1" vertex="1" parent="1">
          <mxGeometry x="11" y="402" width="100" height="30" as="geometry">
            <mxRectangle x="10" y="585" width="189" height="280" as="alternateBounds" />
          </mxGeometry>
        </mxCell>
        <mxCell id="nXuBNPTSIWch-IA69Y4a-88" value="- idFunc&#xa;- dtNascFunc&#xa;- rgFunc&#xa;- cpfFunc&#xa;- nomeFunc&#xa;- endFunc&#xa;- numFunc&#xa;- complementoFunc&#xa;- bairroFunc&#xa;- estadoFunc&#xa;- cidadeFunc&#xa;- cepFunc&#xa;- telFunc&#xa;- contratacaoFunc" style="text;strokeColor=#212121;fillColor=none;align=left;verticalAlign=middle;spacingLeft=4;spacingRight=4;overflow=hidden;points=[[0,0.5],[1,0.5]];portConstraint=eastwest;rotatable=0;" vertex="1" parent="nXuBNPTSIWch-IA69Y4a-87">
          <mxGeometry y="30" width="189" height="210" as="geometry" />
        </mxCell>
        <mxCell id="nXuBNPTSIWch-IA69Y4a-89" value="- anosServ( )&#xa;- calcIdade( )" style="text;strokeColor=#212121;fillColor=none;align=left;verticalAlign=middle;spacingLeft=4;spacingRight=4;overflow=hidden;points=[[0,0.5],[1,0.5]];portConstraint=eastwest;rotatable=0;" vertex="1" parent="nXuBNPTSIWch-IA69Y4a-87">
          <mxGeometry y="240" width="189" height="40" as="geometry" />
        </mxCell>
        <mxCell id="nXuBNPTSIWch-IA69Y4a-90" value="" style="endArrow=none;html=1;rounded=0;edgeStyle=orthogonalEdgeStyle;" edge="1" parent="1" source="nXuBNPTSIWch-IA69Y4a-87" target="nXuBNPTSIWch-IA69Y4a-84">
          <mxGeometry width="50" height="50" relative="1" as="geometry">
            <mxPoint x="450" y="795.5" as="sourcePoint" />
            <mxPoint x="500" y="745.5" as="targetPoint" />
            <Array as="points">
              <mxPoint x="170" y="417" />
              <mxPoint x="170" y="504" />
            </Array>
          </mxGeometry>
        </mxCell>
        <mxCell id="nXuBNPTSIWch-IA69Y4a-91" value="" style="endArrow=none;html=1;rounded=0;" edge="1" parent="1" source="nXuBNPTSIWch-IA69Y4a-84" target="nXuBNPTSIWch-IA69Y4a-81">
          <mxGeometry width="50" height="50" relative="1" as="geometry">
            <mxPoint x="619.0000000000002" y="804.125" as="sourcePoint" />
            <mxPoint x="700" y="836.375" as="targetPoint" />
          </mxGeometry>
        </mxCell>
        <mxCell id="nXuBNPTSIWch-IA69Y4a-92" value="1" style="text;html=1;align=center;verticalAlign=middle;resizable=0;points=[];autosize=1;strokeColor=none;fillColor=none;" vertex="1" parent="1">
          <mxGeometry x="97" y="482" width="30" height="30" as="geometry" />
        </mxCell>
        <mxCell id="nXuBNPTSIWch-IA69Y4a-93" value="1" style="text;html=1;align=center;verticalAlign=middle;resizable=0;points=[];autosize=1;strokeColor=none;fillColor=none;" vertex="1" parent="1">
          <mxGeometry x="106" y="393" width="30" height="30" as="geometry" />
        </mxCell>
        <mxCell id="nXuBNPTSIWch-IA69Y4a-94" value="*" style="text;html=1;align=center;verticalAlign=middle;resizable=0;points=[];autosize=1;strokeColor=none;fillColor=none;" vertex="1" parent="1">
          <mxGeometry x="265.5" y="483" width="30" height="30" as="geometry" />
        </mxCell>
        <mxCell id="nXuBNPTSIWch-IA69Y4a-95" value="«Control»&#xa;CRTGerarSenha" style="swimlane;fontStyle=0;childLayout=stackLayout;horizontal=1;startSize=30;fillColor=none;horizontalStack=0;resizeParent=1;resizeParentMax=0;resizeLast=0;collapsible=1;marginBottom=0;" vertex="1" parent="1">
          <mxGeometry x="707" y="282" width="119" height="90" as="geometry">
            <mxRectangle x="470" y="300" width="150" height="40" as="alternateBounds" />
          </mxGeometry>
        </mxCell>
        <mxCell id="nXuBNPTSIWch-IA69Y4a-96" value="alterar ( )&#xa;buscar ( )&#xa;salvar ( )&#xa;evadir ( )" style="text;strokeColor=#212121;fillColor=none;align=left;verticalAlign=middle;spacingLeft=4;spacingRight=4;overflow=hidden;points=[[0,0.5],[1,0.5]];portConstraint=eastwest;rotatable=0;" vertex="1" parent="nXuBNPTSIWch-IA69Y4a-95">
          <mxGeometry y="30" width="119" height="60" as="geometry" />
        </mxCell>
        <mxCell id="nXuBNPTSIWch-IA69Y4a-97" value="«Boundary»&lt;br&gt;&lt;b&gt;Frm&lt;/b&gt;" style="html=1;" vertex="1" parent="1">
          <mxGeometry x="427" y="282" width="130" height="50" as="geometry" />
        </mxCell>
        <mxCell id="nXuBNPTSIWch-IA69Y4a-98" value="" style="endArrow=none;html=1;rounded=0;" edge="1" parent="1" source="nXuBNPTSIWch-IA69Y4a-103" target="nXuBNPTSIWch-IA69Y4a-95">
          <mxGeometry width="50" height="50" relative="1" as="geometry">
            <mxPoint x="877" y="472" as="sourcePoint" />
            <mxPoint x="876.04" y="374.01" as="targetPoint" />
          </mxGeometry>
        </mxCell>
        <mxCell id="nXuBNPTSIWch-IA69Y4a-99" value="" style="endArrow=none;html=1;rounded=0;entryX=0;entryY=0.25;entryDx=0;entryDy=0;" edge="1" parent="1" source="nXuBNPTSIWch-IA69Y4a-97" target="nXuBNPTSIWch-IA69Y4a-95">
          <mxGeometry width="50" height="50" relative="1" as="geometry">
            <mxPoint x="687" y="372" as="sourcePoint" />
            <mxPoint x="717" y="287" as="targetPoint" />
          </mxGeometry>
        </mxCell>
        <mxCell id="nXuBNPTSIWch-IA69Y4a-100" value="«Entity»&#xa;Paciente" style="swimlane;fontStyle=0;childLayout=stackLayout;horizontal=1;startSize=30;horizontalStack=0;resizeParent=1;resizeParentMax=0;resizeLast=0;collapsible=1;marginBottom=0;strokeColor=#212121;" collapsed="1" vertex="1" parent="1">
          <mxGeometry x="427" y="489" width="90" height="30" as="geometry">
            <mxRectangle x="560" y="901" width="189" height="330" as="alternateBounds" />
          </mxGeometry>
        </mxCell>
        <mxCell id="nXuBNPTSIWch-IA69Y4a-101" value="- idPac&#xa;- dtNascPac&#xa;- rgPac&#xa;- cpfPac&#xa;- nomePac&#xa;- endPac&#xa;- numPac&#xa;- complementoPac&#xa;- bairroPac&#xa;- estadoPac&#xa;- cidadePac&#xa;- cepPac&#xa;- telPac&#xa;- cartaoSusPac&#xa;- numConvenioPac&#xa;- tipoConvenioPac&#xa;- alergiasPac&#xa;- classifRiscoPac" style="text;strokeColor=#212121;fillColor=none;align=left;verticalAlign=middle;spacingLeft=4;spacingRight=4;overflow=hidden;points=[[0,0.5],[1,0.5]];portConstraint=eastwest;rotatable=0;" vertex="1" parent="nXuBNPTSIWch-IA69Y4a-100">
          <mxGeometry y="30" width="189" height="270" as="geometry" />
        </mxCell>
        <mxCell id="nXuBNPTSIWch-IA69Y4a-102" value="- calcIdade( )" style="text;strokeColor=#212121;fillColor=none;align=left;verticalAlign=middle;spacingLeft=4;spacingRight=4;overflow=hidden;points=[[0,0.5],[1,0.5]];portConstraint=eastwest;rotatable=0;" vertex="1" parent="nXuBNPTSIWch-IA69Y4a-100">
          <mxGeometry y="300" width="189" height="30" as="geometry" />
        </mxCell>
        <mxCell id="nXuBNPTSIWch-IA69Y4a-103" value="«Entity»&#xa;Atendimento" style="swimlane;fontStyle=0;childLayout=stackLayout;horizontal=1;startSize=30;horizontalStack=0;resizeParent=1;resizeParentMax=0;resizeLast=0;collapsible=1;marginBottom=0;strokeColor=#212121;" collapsed="1" vertex="1" parent="1">
          <mxGeometry x="711.5" y="489" width="110" height="30" as="geometry">
            <mxRectangle x="277" y="847.5" width="189" height="310" as="alternateBounds" />
          </mxGeometry>
        </mxCell>
        <mxCell id="nXuBNPTSIWch-IA69Y4a-104" value="- senhaAtend&#xa;- dtAtend&#xa;- entradaHospAtend&#xa;- saidaHospAtend&#xa;- inicioAtend&#xa;- fimAtend&#xa;- dtAlta" style="text;strokeColor=#212121;fillColor=none;align=left;verticalAlign=middle;spacingLeft=4;spacingRight=4;overflow=hidden;points=[[0,0.5],[1,0.5]];portConstraint=eastwest;rotatable=0;" vertex="1" parent="nXuBNPTSIWch-IA69Y4a-103">
          <mxGeometry y="30" width="189" height="110" as="geometry" />
        </mxCell>
        <mxCell id="nXuBNPTSIWch-IA69Y4a-105" value="+ tempParaAtend ( )&#xa;+ tempAtend ( )&#xa;+ isAltaAtend ( )&#xa;+ filaRecepcao ( )&#xa;+ filaTriagem ( )&#xa;+ filaAtendimento ( )&#xa;+ filaEspecialidade ( )&#xa;+ filaMedicacao ( )&#xa;+ filaExames ( ) &#xa;+ filaInternacao ( )&#xa;+ filaCirurgia ( )" style="text;strokeColor=#212121;fillColor=none;align=left;verticalAlign=middle;spacingLeft=4;spacingRight=4;overflow=hidden;points=[[0,0.5],[1,0.5]];portConstraint=eastwest;rotatable=0;" vertex="1" parent="nXuBNPTSIWch-IA69Y4a-103">
          <mxGeometry y="140" width="189" height="170" as="geometry" />
        </mxCell>
        <mxCell id="nXuBNPTSIWch-IA69Y4a-106" value="«Entity»&#xa;Funcionário" style="swimlane;fontStyle=0;childLayout=stackLayout;horizontal=1;startSize=30;horizontalStack=0;resizeParent=1;resizeParentMax=0;resizeLast=0;collapsible=1;marginBottom=0;strokeColor=#212121;" collapsed="1" vertex="1" parent="1">
          <mxGeometry x="427" y="402" width="100" height="30" as="geometry">
            <mxRectangle x="10" y="585" width="189" height="280" as="alternateBounds" />
          </mxGeometry>
        </mxCell>
        <mxCell id="nXuBNPTSIWch-IA69Y4a-107" value="- idFunc&#xa;- dtNascFunc&#xa;- rgFunc&#xa;- cpfFunc&#xa;- nomeFunc&#xa;- endFunc&#xa;- numFunc&#xa;- complementoFunc&#xa;- bairroFunc&#xa;- estadoFunc&#xa;- cidadeFunc&#xa;- cepFunc&#xa;- telFunc&#xa;- contratacaoFunc" style="text;strokeColor=#212121;fillColor=none;align=left;verticalAlign=middle;spacingLeft=4;spacingRight=4;overflow=hidden;points=[[0,0.5],[1,0.5]];portConstraint=eastwest;rotatable=0;" vertex="1" parent="nXuBNPTSIWch-IA69Y4a-106">
          <mxGeometry y="30" width="189" height="210" as="geometry" />
        </mxCell>
        <mxCell id="nXuBNPTSIWch-IA69Y4a-108" value="- anosServ( )&#xa;- calcIdade( )" style="text;strokeColor=#212121;fillColor=none;align=left;verticalAlign=middle;spacingLeft=4;spacingRight=4;overflow=hidden;points=[[0,0.5],[1,0.5]];portConstraint=eastwest;rotatable=0;" vertex="1" parent="nXuBNPTSIWch-IA69Y4a-106">
          <mxGeometry y="240" width="189" height="40" as="geometry" />
        </mxCell>
        <mxCell id="nXuBNPTSIWch-IA69Y4a-109" value="" style="endArrow=none;html=1;rounded=0;edgeStyle=orthogonalEdgeStyle;" edge="1" parent="1" source="nXuBNPTSIWch-IA69Y4a-106" target="nXuBNPTSIWch-IA69Y4a-103">
          <mxGeometry width="50" height="50" relative="1" as="geometry">
            <mxPoint x="866" y="795.5" as="sourcePoint" />
            <mxPoint x="916" y="745.5" as="targetPoint" />
            <Array as="points">
              <mxPoint x="586" y="417" />
              <mxPoint x="586" y="504" />
            </Array>
          </mxGeometry>
        </mxCell>
        <mxCell id="nXuBNPTSIWch-IA69Y4a-110" value="" style="endArrow=none;html=1;rounded=0;" edge="1" parent="1" source="nXuBNPTSIWch-IA69Y4a-103" target="nXuBNPTSIWch-IA69Y4a-100">
          <mxGeometry width="50" height="50" relative="1" as="geometry">
            <mxPoint x="1035.0000000000002" y="804.125" as="sourcePoint" />
            <mxPoint x="1116" y="836.375" as="targetPoint" />
          </mxGeometry>
        </mxCell>
        <mxCell id="nXuBNPTSIWch-IA69Y4a-111" value="1" style="text;html=1;align=center;verticalAlign=middle;resizable=0;points=[];autosize=1;strokeColor=none;fillColor=none;" vertex="1" parent="1">
          <mxGeometry x="513" y="482" width="30" height="30" as="geometry" />
        </mxCell>
        <mxCell id="nXuBNPTSIWch-IA69Y4a-112" value="1" style="text;html=1;align=center;verticalAlign=middle;resizable=0;points=[];autosize=1;strokeColor=none;fillColor=none;" vertex="1" parent="1">
          <mxGeometry x="522" y="393" width="30" height="30" as="geometry" />
        </mxCell>
        <mxCell id="nXuBNPTSIWch-IA69Y4a-113" value="*" style="text;html=1;align=center;verticalAlign=middle;resizable=0;points=[];autosize=1;strokeColor=none;fillColor=none;" vertex="1" parent="1">
          <mxGeometry x="681.5" y="483" width="30" height="30" as="geometry" />
        </mxCell>
        <mxCell id="nXuBNPTSIWch-IA69Y4a-114" value="«Control»&#xa;CRTNotificarEvasao" style="swimlane;fontStyle=0;childLayout=stackLayout;horizontal=1;startSize=30;fillColor=none;horizontalStack=0;resizeParent=1;resizeParentMax=0;resizeLast=0;collapsible=1;marginBottom=0;" vertex="1" parent="1">
          <mxGeometry x="286" y="554" width="119" height="90" as="geometry">
            <mxRectangle x="470" y="300" width="150" height="40" as="alternateBounds" />
          </mxGeometry>
        </mxCell>
        <mxCell id="nXuBNPTSIWch-IA69Y4a-115" value="alterar ( )&#xa;buscar ( )&#xa;salvar ( )&#xa;evadir ( )" style="text;strokeColor=#212121;fillColor=none;align=left;verticalAlign=middle;spacingLeft=4;spacingRight=4;overflow=hidden;points=[[0,0.5],[1,0.5]];portConstraint=eastwest;rotatable=0;" vertex="1" parent="nXuBNPTSIWch-IA69Y4a-114">
          <mxGeometry y="30" width="119" height="60" as="geometry" />
        </mxCell>
        <mxCell id="nXuBNPTSIWch-IA69Y4a-116" value="«Boundary»&lt;br&gt;&lt;b&gt;Frm&lt;/b&gt;" style="html=1;" vertex="1" parent="1">
          <mxGeometry x="6" y="554" width="130" height="50" as="geometry" />
        </mxCell>
        <mxCell id="nXuBNPTSIWch-IA69Y4a-117" value="" style="endArrow=none;html=1;rounded=0;" edge="1" parent="1" source="nXuBNPTSIWch-IA69Y4a-122" target="nXuBNPTSIWch-IA69Y4a-114">
          <mxGeometry width="50" height="50" relative="1" as="geometry">
            <mxPoint x="456" y="744" as="sourcePoint" />
            <mxPoint x="455.03999999999996" y="646.01" as="targetPoint" />
          </mxGeometry>
        </mxCell>
        <mxCell id="nXuBNPTSIWch-IA69Y4a-118" value="" style="endArrow=none;html=1;rounded=0;entryX=0;entryY=0.25;entryDx=0;entryDy=0;" edge="1" parent="1" source="nXuBNPTSIWch-IA69Y4a-116" target="nXuBNPTSIWch-IA69Y4a-114">
          <mxGeometry width="50" height="50" relative="1" as="geometry">
            <mxPoint x="266" y="644" as="sourcePoint" />
            <mxPoint x="296" y="559" as="targetPoint" />
          </mxGeometry>
        </mxCell>
        <mxCell id="nXuBNPTSIWch-IA69Y4a-119" value="«Entity»&#xa;Paciente" style="swimlane;fontStyle=0;childLayout=stackLayout;horizontal=1;startSize=30;horizontalStack=0;resizeParent=1;resizeParentMax=0;resizeLast=0;collapsible=1;marginBottom=0;strokeColor=#212121;" collapsed="1" vertex="1" parent="1">
          <mxGeometry x="6" y="761" width="90" height="30" as="geometry">
            <mxRectangle x="560" y="901" width="189" height="330" as="alternateBounds" />
          </mxGeometry>
        </mxCell>
        <mxCell id="nXuBNPTSIWch-IA69Y4a-120" value="- idPac&#xa;- dtNascPac&#xa;- rgPac&#xa;- cpfPac&#xa;- nomePac&#xa;- endPac&#xa;- numPac&#xa;- complementoPac&#xa;- bairroPac&#xa;- estadoPac&#xa;- cidadePac&#xa;- cepPac&#xa;- telPac&#xa;- cartaoSusPac&#xa;- numConvenioPac&#xa;- tipoConvenioPac&#xa;- alergiasPac&#xa;- classifRiscoPac" style="text;strokeColor=#212121;fillColor=none;align=left;verticalAlign=middle;spacingLeft=4;spacingRight=4;overflow=hidden;points=[[0,0.5],[1,0.5]];portConstraint=eastwest;rotatable=0;" vertex="1" parent="nXuBNPTSIWch-IA69Y4a-119">
          <mxGeometry y="30" width="189" height="270" as="geometry" />
        </mxCell>
        <mxCell id="nXuBNPTSIWch-IA69Y4a-121" value="- calcIdade( )" style="text;strokeColor=#212121;fillColor=none;align=left;verticalAlign=middle;spacingLeft=4;spacingRight=4;overflow=hidden;points=[[0,0.5],[1,0.5]];portConstraint=eastwest;rotatable=0;" vertex="1" parent="nXuBNPTSIWch-IA69Y4a-119">
          <mxGeometry y="300" width="189" height="30" as="geometry" />
        </mxCell>
        <mxCell id="nXuBNPTSIWch-IA69Y4a-122" value="«Entity»&#xa;Atendimento" style="swimlane;fontStyle=0;childLayout=stackLayout;horizontal=1;startSize=30;horizontalStack=0;resizeParent=1;resizeParentMax=0;resizeLast=0;collapsible=1;marginBottom=0;strokeColor=#212121;" collapsed="1" vertex="1" parent="1">
          <mxGeometry x="290.5" y="761" width="110" height="30" as="geometry">
            <mxRectangle x="277" y="847.5" width="189" height="310" as="alternateBounds" />
          </mxGeometry>
        </mxCell>
        <mxCell id="nXuBNPTSIWch-IA69Y4a-123" value="- senhaAtend&#xa;- dtAtend&#xa;- entradaHospAtend&#xa;- saidaHospAtend&#xa;- inicioAtend&#xa;- fimAtend&#xa;- dtAlta" style="text;strokeColor=#212121;fillColor=none;align=left;verticalAlign=middle;spacingLeft=4;spacingRight=4;overflow=hidden;points=[[0,0.5],[1,0.5]];portConstraint=eastwest;rotatable=0;" vertex="1" parent="nXuBNPTSIWch-IA69Y4a-122">
          <mxGeometry y="30" width="189" height="110" as="geometry" />
        </mxCell>
        <mxCell id="nXuBNPTSIWch-IA69Y4a-124" value="+ tempParaAtend ( )&#xa;+ tempAtend ( )&#xa;+ isAltaAtend ( )&#xa;+ filaRecepcao ( )&#xa;+ filaTriagem ( )&#xa;+ filaAtendimento ( )&#xa;+ filaEspecialidade ( )&#xa;+ filaMedicacao ( )&#xa;+ filaExames ( ) &#xa;+ filaInternacao ( )&#xa;+ filaCirurgia ( )" style="text;strokeColor=#212121;fillColor=none;align=left;verticalAlign=middle;spacingLeft=4;spacingRight=4;overflow=hidden;points=[[0,0.5],[1,0.5]];portConstraint=eastwest;rotatable=0;" vertex="1" parent="nXuBNPTSIWch-IA69Y4a-122">
          <mxGeometry y="140" width="189" height="170" as="geometry" />
        </mxCell>
        <mxCell id="nXuBNPTSIWch-IA69Y4a-125" value="«Entity»&#xa;Funcionário" style="swimlane;fontStyle=0;childLayout=stackLayout;horizontal=1;startSize=30;horizontalStack=0;resizeParent=1;resizeParentMax=0;resizeLast=0;collapsible=1;marginBottom=0;strokeColor=#212121;" collapsed="1" vertex="1" parent="1">
          <mxGeometry x="6" y="674" width="100" height="30" as="geometry">
            <mxRectangle x="10" y="585" width="189" height="280" as="alternateBounds" />
          </mxGeometry>
        </mxCell>
        <mxCell id="nXuBNPTSIWch-IA69Y4a-126" value="- idFunc&#xa;- dtNascFunc&#xa;- rgFunc&#xa;- cpfFunc&#xa;- nomeFunc&#xa;- endFunc&#xa;- numFunc&#xa;- complementoFunc&#xa;- bairroFunc&#xa;- estadoFunc&#xa;- cidadeFunc&#xa;- cepFunc&#xa;- telFunc&#xa;- contratacaoFunc" style="text;strokeColor=#212121;fillColor=none;align=left;verticalAlign=middle;spacingLeft=4;spacingRight=4;overflow=hidden;points=[[0,0.5],[1,0.5]];portConstraint=eastwest;rotatable=0;" vertex="1" parent="nXuBNPTSIWch-IA69Y4a-125">
          <mxGeometry y="30" width="189" height="210" as="geometry" />
        </mxCell>
        <mxCell id="nXuBNPTSIWch-IA69Y4a-127" value="- anosServ( )&#xa;- calcIdade( )" style="text;strokeColor=#212121;fillColor=none;align=left;verticalAlign=middle;spacingLeft=4;spacingRight=4;overflow=hidden;points=[[0,0.5],[1,0.5]];portConstraint=eastwest;rotatable=0;" vertex="1" parent="nXuBNPTSIWch-IA69Y4a-125">
          <mxGeometry y="240" width="189" height="40" as="geometry" />
        </mxCell>
        <mxCell id="nXuBNPTSIWch-IA69Y4a-128" value="" style="endArrow=none;html=1;rounded=0;edgeStyle=orthogonalEdgeStyle;" edge="1" parent="1" source="nXuBNPTSIWch-IA69Y4a-125" target="nXuBNPTSIWch-IA69Y4a-122">
          <mxGeometry width="50" height="50" relative="1" as="geometry">
            <mxPoint x="445" y="1067.5" as="sourcePoint" />
            <mxPoint x="495" y="1017.5" as="targetPoint" />
            <Array as="points">
              <mxPoint x="165" y="689" />
              <mxPoint x="165" y="776" />
            </Array>
          </mxGeometry>
        </mxCell>
        <mxCell id="nXuBNPTSIWch-IA69Y4a-129" value="" style="endArrow=none;html=1;rounded=0;" edge="1" parent="1" source="nXuBNPTSIWch-IA69Y4a-122" target="nXuBNPTSIWch-IA69Y4a-119">
          <mxGeometry width="50" height="50" relative="1" as="geometry">
            <mxPoint x="614.0000000000002" y="1076.125" as="sourcePoint" />
            <mxPoint x="695" y="1108.375" as="targetPoint" />
          </mxGeometry>
        </mxCell>
        <mxCell id="nXuBNPTSIWch-IA69Y4a-130" value="1" style="text;html=1;align=center;verticalAlign=middle;resizable=0;points=[];autosize=1;strokeColor=none;fillColor=none;" vertex="1" parent="1">
          <mxGeometry x="92" y="754" width="30" height="30" as="geometry" />
        </mxCell>
        <mxCell id="nXuBNPTSIWch-IA69Y4a-131" value="1" style="text;html=1;align=center;verticalAlign=middle;resizable=0;points=[];autosize=1;strokeColor=none;fillColor=none;" vertex="1" parent="1">
          <mxGeometry x="101" y="665" width="30" height="30" as="geometry" />
        </mxCell>
        <mxCell id="nXuBNPTSIWch-IA69Y4a-132" value="*" style="text;html=1;align=center;verticalAlign=middle;resizable=0;points=[];autosize=1;strokeColor=none;fillColor=none;" vertex="1" parent="1">
          <mxGeometry x="260.5" y="755" width="30" height="30" as="geometry" />
        </mxCell>
        <mxCell id="nXuBNPTSIWch-IA69Y4a-133" value="«Control»&#xa;CRTApresentarMotivo" style="swimlane;fontStyle=0;childLayout=stackLayout;horizontal=1;startSize=30;fillColor=none;horizontalStack=0;resizeParent=1;resizeParentMax=0;resizeLast=0;collapsible=1;marginBottom=0;" vertex="1" parent="1">
          <mxGeometry x="702" y="554" width="119" height="90" as="geometry">
            <mxRectangle x="470" y="300" width="150" height="40" as="alternateBounds" />
          </mxGeometry>
        </mxCell>
        <mxCell id="nXuBNPTSIWch-IA69Y4a-134" value="alterar ( )&#xa;buscar ( )&#xa;salvar ( )&#xa;evadir ( )" style="text;strokeColor=#212121;fillColor=none;align=left;verticalAlign=middle;spacingLeft=4;spacingRight=4;overflow=hidden;points=[[0,0.5],[1,0.5]];portConstraint=eastwest;rotatable=0;" vertex="1" parent="nXuBNPTSIWch-IA69Y4a-133">
          <mxGeometry y="30" width="119" height="60" as="geometry" />
        </mxCell>
        <mxCell id="nXuBNPTSIWch-IA69Y4a-135" value="«Boundary»&lt;br&gt;&lt;b&gt;Frm&lt;/b&gt;" style="html=1;" vertex="1" parent="1">
          <mxGeometry x="422" y="554" width="130" height="50" as="geometry" />
        </mxCell>
        <mxCell id="nXuBNPTSIWch-IA69Y4a-136" value="" style="endArrow=none;html=1;rounded=0;" edge="1" parent="1" source="nXuBNPTSIWch-IA69Y4a-141" target="nXuBNPTSIWch-IA69Y4a-133">
          <mxGeometry width="50" height="50" relative="1" as="geometry">
            <mxPoint x="872" y="744" as="sourcePoint" />
            <mxPoint x="871.04" y="646.01" as="targetPoint" />
          </mxGeometry>
        </mxCell>
        <mxCell id="nXuBNPTSIWch-IA69Y4a-137" value="" style="endArrow=none;html=1;rounded=0;entryX=0;entryY=0.25;entryDx=0;entryDy=0;" edge="1" parent="1" source="nXuBNPTSIWch-IA69Y4a-135" target="nXuBNPTSIWch-IA69Y4a-133">
          <mxGeometry width="50" height="50" relative="1" as="geometry">
            <mxPoint x="682" y="644" as="sourcePoint" />
            <mxPoint x="712" y="559" as="targetPoint" />
          </mxGeometry>
        </mxCell>
        <mxCell id="nXuBNPTSIWch-IA69Y4a-138" value="«Entity»&#xa;Paciente" style="swimlane;fontStyle=0;childLayout=stackLayout;horizontal=1;startSize=30;horizontalStack=0;resizeParent=1;resizeParentMax=0;resizeLast=0;collapsible=1;marginBottom=0;strokeColor=#212121;" collapsed="1" vertex="1" parent="1">
          <mxGeometry x="422" y="761" width="90" height="30" as="geometry">
            <mxRectangle x="560" y="901" width="189" height="330" as="alternateBounds" />
          </mxGeometry>
        </mxCell>
        <mxCell id="nXuBNPTSIWch-IA69Y4a-139" value="- idPac&#xa;- dtNascPac&#xa;- rgPac&#xa;- cpfPac&#xa;- nomePac&#xa;- endPac&#xa;- numPac&#xa;- complementoPac&#xa;- bairroPac&#xa;- estadoPac&#xa;- cidadePac&#xa;- cepPac&#xa;- telPac&#xa;- cartaoSusPac&#xa;- numConvenioPac&#xa;- tipoConvenioPac&#xa;- alergiasPac&#xa;- classifRiscoPac" style="text;strokeColor=#212121;fillColor=none;align=left;verticalAlign=middle;spacingLeft=4;spacingRight=4;overflow=hidden;points=[[0,0.5],[1,0.5]];portConstraint=eastwest;rotatable=0;" vertex="1" parent="nXuBNPTSIWch-IA69Y4a-138">
          <mxGeometry y="30" width="189" height="270" as="geometry" />
        </mxCell>
        <mxCell id="nXuBNPTSIWch-IA69Y4a-140" value="- calcIdade( )" style="text;strokeColor=#212121;fillColor=none;align=left;verticalAlign=middle;spacingLeft=4;spacingRight=4;overflow=hidden;points=[[0,0.5],[1,0.5]];portConstraint=eastwest;rotatable=0;" vertex="1" parent="nXuBNPTSIWch-IA69Y4a-138">
          <mxGeometry y="300" width="189" height="30" as="geometry" />
        </mxCell>
        <mxCell id="nXuBNPTSIWch-IA69Y4a-141" value="«Entity»&#xa;Atendimento" style="swimlane;fontStyle=0;childLayout=stackLayout;horizontal=1;startSize=30;horizontalStack=0;resizeParent=1;resizeParentMax=0;resizeLast=0;collapsible=1;marginBottom=0;strokeColor=#212121;" collapsed="1" vertex="1" parent="1">
          <mxGeometry x="706.5" y="761" width="110" height="30" as="geometry">
            <mxRectangle x="277" y="847.5" width="189" height="310" as="alternateBounds" />
          </mxGeometry>
        </mxCell>
        <mxCell id="nXuBNPTSIWch-IA69Y4a-142" value="- senhaAtend&#xa;- dtAtend&#xa;- entradaHospAtend&#xa;- saidaHospAtend&#xa;- inicioAtend&#xa;- fimAtend&#xa;- dtAlta" style="text;strokeColor=#212121;fillColor=none;align=left;verticalAlign=middle;spacingLeft=4;spacingRight=4;overflow=hidden;points=[[0,0.5],[1,0.5]];portConstraint=eastwest;rotatable=0;" vertex="1" parent="nXuBNPTSIWch-IA69Y4a-141">
          <mxGeometry y="30" width="189" height="110" as="geometry" />
        </mxCell>
        <mxCell id="nXuBNPTSIWch-IA69Y4a-143" value="+ tempParaAtend ( )&#xa;+ tempAtend ( )&#xa;+ isAltaAtend ( )&#xa;+ filaRecepcao ( )&#xa;+ filaTriagem ( )&#xa;+ filaAtendimento ( )&#xa;+ filaEspecialidade ( )&#xa;+ filaMedicacao ( )&#xa;+ filaExames ( ) &#xa;+ filaInternacao ( )&#xa;+ filaCirurgia ( )" style="text;strokeColor=#212121;fillColor=none;align=left;verticalAlign=middle;spacingLeft=4;spacingRight=4;overflow=hidden;points=[[0,0.5],[1,0.5]];portConstraint=eastwest;rotatable=0;" vertex="1" parent="nXuBNPTSIWch-IA69Y4a-141">
          <mxGeometry y="140" width="189" height="170" as="geometry" />
        </mxCell>
        <mxCell id="nXuBNPTSIWch-IA69Y4a-144" value="«Entity»&#xa;Funcionário" style="swimlane;fontStyle=0;childLayout=stackLayout;horizontal=1;startSize=30;horizontalStack=0;resizeParent=1;resizeParentMax=0;resizeLast=0;collapsible=1;marginBottom=0;strokeColor=#212121;" collapsed="1" vertex="1" parent="1">
          <mxGeometry x="422" y="674" width="100" height="30" as="geometry">
            <mxRectangle x="10" y="585" width="189" height="280" as="alternateBounds" />
          </mxGeometry>
        </mxCell>
        <mxCell id="nXuBNPTSIWch-IA69Y4a-145" value="- idFunc&#xa;- dtNascFunc&#xa;- rgFunc&#xa;- cpfFunc&#xa;- nomeFunc&#xa;- endFunc&#xa;- numFunc&#xa;- complementoFunc&#xa;- bairroFunc&#xa;- estadoFunc&#xa;- cidadeFunc&#xa;- cepFunc&#xa;- telFunc&#xa;- contratacaoFunc" style="text;strokeColor=#212121;fillColor=none;align=left;verticalAlign=middle;spacingLeft=4;spacingRight=4;overflow=hidden;points=[[0,0.5],[1,0.5]];portConstraint=eastwest;rotatable=0;" vertex="1" parent="nXuBNPTSIWch-IA69Y4a-144">
          <mxGeometry y="30" width="189" height="210" as="geometry" />
        </mxCell>
        <mxCell id="nXuBNPTSIWch-IA69Y4a-146" value="- anosServ( )&#xa;- calcIdade( )" style="text;strokeColor=#212121;fillColor=none;align=left;verticalAlign=middle;spacingLeft=4;spacingRight=4;overflow=hidden;points=[[0,0.5],[1,0.5]];portConstraint=eastwest;rotatable=0;" vertex="1" parent="nXuBNPTSIWch-IA69Y4a-144">
          <mxGeometry y="240" width="189" height="40" as="geometry" />
        </mxCell>
        <mxCell id="nXuBNPTSIWch-IA69Y4a-147" value="" style="endArrow=none;html=1;rounded=0;edgeStyle=orthogonalEdgeStyle;" edge="1" parent="1" source="nXuBNPTSIWch-IA69Y4a-144" target="nXuBNPTSIWch-IA69Y4a-141">
          <mxGeometry width="50" height="50" relative="1" as="geometry">
            <mxPoint x="861" y="1067.5" as="sourcePoint" />
            <mxPoint x="911" y="1017.5" as="targetPoint" />
            <Array as="points">
              <mxPoint x="581" y="689" />
              <mxPoint x="581" y="776" />
            </Array>
          </mxGeometry>
        </mxCell>
        <mxCell id="nXuBNPTSIWch-IA69Y4a-148" value="" style="endArrow=none;html=1;rounded=0;" edge="1" parent="1" source="nXuBNPTSIWch-IA69Y4a-141" target="nXuBNPTSIWch-IA69Y4a-138">
          <mxGeometry width="50" height="50" relative="1" as="geometry">
            <mxPoint x="1030.0000000000002" y="1076.125" as="sourcePoint" />
            <mxPoint x="1111" y="1108.375" as="targetPoint" />
          </mxGeometry>
        </mxCell>
        <mxCell id="nXuBNPTSIWch-IA69Y4a-149" value="1" style="text;html=1;align=center;verticalAlign=middle;resizable=0;points=[];autosize=1;strokeColor=none;fillColor=none;" vertex="1" parent="1">
          <mxGeometry x="508" y="754" width="30" height="30" as="geometry" />
        </mxCell>
        <mxCell id="nXuBNPTSIWch-IA69Y4a-150" value="1" style="text;html=1;align=center;verticalAlign=middle;resizable=0;points=[];autosize=1;strokeColor=none;fillColor=none;" vertex="1" parent="1">
          <mxGeometry x="517" y="665" width="30" height="30" as="geometry" />
        </mxCell>
        <mxCell id="nXuBNPTSIWch-IA69Y4a-151" value="*" style="text;html=1;align=center;verticalAlign=middle;resizable=0;points=[];autosize=1;strokeColor=none;fillColor=none;" vertex="1" parent="1">
          <mxGeometry x="676.5" y="755" width="30" height="30" as="geometry" />
        </mxCell>
        <mxCell id="nXuBNPTSIWch-IA69Y4a-152" value="«Control»&#xa;CRTIniciarFicha" style="swimlane;fontStyle=0;childLayout=stackLayout;horizontal=1;startSize=30;fillColor=none;horizontalStack=0;resizeParent=1;resizeParentMax=0;resizeLast=0;collapsible=1;marginBottom=0;" vertex="1" parent="1">
          <mxGeometry x="287" y="816" width="119" height="90" as="geometry">
            <mxRectangle x="470" y="300" width="150" height="40" as="alternateBounds" />
          </mxGeometry>
        </mxCell>
        <mxCell id="nXuBNPTSIWch-IA69Y4a-153" value="alterar ( )&#xa;buscar ( )&#xa;salvar ( )&#xa;evadir ( )" style="text;strokeColor=#212121;fillColor=none;align=left;verticalAlign=middle;spacingLeft=4;spacingRight=4;overflow=hidden;points=[[0,0.5],[1,0.5]];portConstraint=eastwest;rotatable=0;" vertex="1" parent="nXuBNPTSIWch-IA69Y4a-152">
          <mxGeometry y="30" width="119" height="60" as="geometry" />
        </mxCell>
        <mxCell id="nXuBNPTSIWch-IA69Y4a-154" value="«Boundary»&lt;br&gt;&lt;b&gt;Frm&lt;/b&gt;" style="html=1;" vertex="1" parent="1">
          <mxGeometry x="7" y="816" width="130" height="50" as="geometry" />
        </mxCell>
        <mxCell id="nXuBNPTSIWch-IA69Y4a-155" value="" style="endArrow=none;html=1;rounded=0;" edge="1" parent="1" source="nXuBNPTSIWch-IA69Y4a-160" target="nXuBNPTSIWch-IA69Y4a-152">
          <mxGeometry width="50" height="50" relative="1" as="geometry">
            <mxPoint x="457" y="1006" as="sourcePoint" />
            <mxPoint x="456.03999999999996" y="908.01" as="targetPoint" />
          </mxGeometry>
        </mxCell>
        <mxCell id="nXuBNPTSIWch-IA69Y4a-156" value="" style="endArrow=none;html=1;rounded=0;entryX=0;entryY=0.25;entryDx=0;entryDy=0;" edge="1" parent="1" source="nXuBNPTSIWch-IA69Y4a-154" target="nXuBNPTSIWch-IA69Y4a-152">
          <mxGeometry width="50" height="50" relative="1" as="geometry">
            <mxPoint x="267" y="906" as="sourcePoint" />
            <mxPoint x="297" y="821" as="targetPoint" />
          </mxGeometry>
        </mxCell>
        <mxCell id="nXuBNPTSIWch-IA69Y4a-157" value="«Entity»&#xa;Paciente" style="swimlane;fontStyle=0;childLayout=stackLayout;horizontal=1;startSize=30;horizontalStack=0;resizeParent=1;resizeParentMax=0;resizeLast=0;collapsible=1;marginBottom=0;strokeColor=#212121;" collapsed="1" vertex="1" parent="1">
          <mxGeometry x="7" y="1023" width="90" height="30" as="geometry">
            <mxRectangle x="560" y="901" width="189" height="330" as="alternateBounds" />
          </mxGeometry>
        </mxCell>
        <mxCell id="nXuBNPTSIWch-IA69Y4a-158" value="- idPac&#xa;- dtNascPac&#xa;- rgPac&#xa;- cpfPac&#xa;- nomePac&#xa;- endPac&#xa;- numPac&#xa;- complementoPac&#xa;- bairroPac&#xa;- estadoPac&#xa;- cidadePac&#xa;- cepPac&#xa;- telPac&#xa;- cartaoSusPac&#xa;- numConvenioPac&#xa;- tipoConvenioPac&#xa;- alergiasPac&#xa;- classifRiscoPac" style="text;strokeColor=#212121;fillColor=none;align=left;verticalAlign=middle;spacingLeft=4;spacingRight=4;overflow=hidden;points=[[0,0.5],[1,0.5]];portConstraint=eastwest;rotatable=0;" vertex="1" parent="nXuBNPTSIWch-IA69Y4a-157">
          <mxGeometry y="30" width="189" height="270" as="geometry" />
        </mxCell>
        <mxCell id="nXuBNPTSIWch-IA69Y4a-159" value="- calcIdade( )" style="text;strokeColor=#212121;fillColor=none;align=left;verticalAlign=middle;spacingLeft=4;spacingRight=4;overflow=hidden;points=[[0,0.5],[1,0.5]];portConstraint=eastwest;rotatable=0;" vertex="1" parent="nXuBNPTSIWch-IA69Y4a-157">
          <mxGeometry y="300" width="189" height="30" as="geometry" />
        </mxCell>
        <mxCell id="nXuBNPTSIWch-IA69Y4a-160" value="«Entity»&#xa;Atendimento" style="swimlane;fontStyle=0;childLayout=stackLayout;horizontal=1;startSize=30;horizontalStack=0;resizeParent=1;resizeParentMax=0;resizeLast=0;collapsible=1;marginBottom=0;strokeColor=#212121;" collapsed="1" vertex="1" parent="1">
          <mxGeometry x="291.5" y="1023" width="110" height="30" as="geometry">
            <mxRectangle x="277" y="847.5" width="189" height="310" as="alternateBounds" />
          </mxGeometry>
        </mxCell>
        <mxCell id="nXuBNPTSIWch-IA69Y4a-161" value="- senhaAtend&#xa;- dtAtend&#xa;- entradaHospAtend&#xa;- saidaHospAtend&#xa;- inicioAtend&#xa;- fimAtend&#xa;- dtAlta" style="text;strokeColor=#212121;fillColor=none;align=left;verticalAlign=middle;spacingLeft=4;spacingRight=4;overflow=hidden;points=[[0,0.5],[1,0.5]];portConstraint=eastwest;rotatable=0;" vertex="1" parent="nXuBNPTSIWch-IA69Y4a-160">
          <mxGeometry y="30" width="189" height="110" as="geometry" />
        </mxCell>
        <mxCell id="nXuBNPTSIWch-IA69Y4a-162" value="+ tempParaAtend ( )&#xa;+ tempAtend ( )&#xa;+ isAltaAtend ( )&#xa;+ filaRecepcao ( )&#xa;+ filaTriagem ( )&#xa;+ filaAtendimento ( )&#xa;+ filaEspecialidade ( )&#xa;+ filaMedicacao ( )&#xa;+ filaExames ( ) &#xa;+ filaInternacao ( )&#xa;+ filaCirurgia ( )" style="text;strokeColor=#212121;fillColor=none;align=left;verticalAlign=middle;spacingLeft=4;spacingRight=4;overflow=hidden;points=[[0,0.5],[1,0.5]];portConstraint=eastwest;rotatable=0;" vertex="1" parent="nXuBNPTSIWch-IA69Y4a-160">
          <mxGeometry y="140" width="189" height="170" as="geometry" />
        </mxCell>
        <mxCell id="nXuBNPTSIWch-IA69Y4a-163" value="«Entity»&#xa;Funcionário" style="swimlane;fontStyle=0;childLayout=stackLayout;horizontal=1;startSize=30;horizontalStack=0;resizeParent=1;resizeParentMax=0;resizeLast=0;collapsible=1;marginBottom=0;strokeColor=#212121;" collapsed="1" vertex="1" parent="1">
          <mxGeometry x="7" y="936" width="100" height="30" as="geometry">
            <mxRectangle x="10" y="585" width="189" height="280" as="alternateBounds" />
          </mxGeometry>
        </mxCell>
        <mxCell id="nXuBNPTSIWch-IA69Y4a-164" value="- idFunc&#xa;- dtNascFunc&#xa;- rgFunc&#xa;- cpfFunc&#xa;- nomeFunc&#xa;- endFunc&#xa;- numFunc&#xa;- complementoFunc&#xa;- bairroFunc&#xa;- estadoFunc&#xa;- cidadeFunc&#xa;- cepFunc&#xa;- telFunc&#xa;- contratacaoFunc" style="text;strokeColor=#212121;fillColor=none;align=left;verticalAlign=middle;spacingLeft=4;spacingRight=4;overflow=hidden;points=[[0,0.5],[1,0.5]];portConstraint=eastwest;rotatable=0;" vertex="1" parent="nXuBNPTSIWch-IA69Y4a-163">
          <mxGeometry y="30" width="189" height="210" as="geometry" />
        </mxCell>
        <mxCell id="nXuBNPTSIWch-IA69Y4a-165" value="- anosServ( )&#xa;- calcIdade( )" style="text;strokeColor=#212121;fillColor=none;align=left;verticalAlign=middle;spacingLeft=4;spacingRight=4;overflow=hidden;points=[[0,0.5],[1,0.5]];portConstraint=eastwest;rotatable=0;" vertex="1" parent="nXuBNPTSIWch-IA69Y4a-163">
          <mxGeometry y="240" width="189" height="40" as="geometry" />
        </mxCell>
        <mxCell id="nXuBNPTSIWch-IA69Y4a-166" value="" style="endArrow=none;html=1;rounded=0;edgeStyle=orthogonalEdgeStyle;" edge="1" parent="1" source="nXuBNPTSIWch-IA69Y4a-163" target="nXuBNPTSIWch-IA69Y4a-160">
          <mxGeometry width="50" height="50" relative="1" as="geometry">
            <mxPoint x="446" y="1329.5" as="sourcePoint" />
            <mxPoint x="496" y="1279.5" as="targetPoint" />
            <Array as="points">
              <mxPoint x="166" y="951" />
              <mxPoint x="166" y="1038" />
            </Array>
          </mxGeometry>
        </mxCell>
        <mxCell id="nXuBNPTSIWch-IA69Y4a-167" value="" style="endArrow=none;html=1;rounded=0;" edge="1" parent="1" source="nXuBNPTSIWch-IA69Y4a-160" target="nXuBNPTSIWch-IA69Y4a-157">
          <mxGeometry width="50" height="50" relative="1" as="geometry">
            <mxPoint x="615.0000000000002" y="1338.125" as="sourcePoint" />
            <mxPoint x="696" y="1370.375" as="targetPoint" />
          </mxGeometry>
        </mxCell>
        <mxCell id="nXuBNPTSIWch-IA69Y4a-168" value="1" style="text;html=1;align=center;verticalAlign=middle;resizable=0;points=[];autosize=1;strokeColor=none;fillColor=none;" vertex="1" parent="1">
          <mxGeometry x="93" y="1016" width="30" height="30" as="geometry" />
        </mxCell>
        <mxCell id="nXuBNPTSIWch-IA69Y4a-169" value="1" style="text;html=1;align=center;verticalAlign=middle;resizable=0;points=[];autosize=1;strokeColor=none;fillColor=none;" vertex="1" parent="1">
          <mxGeometry x="102" y="927" width="30" height="30" as="geometry" />
        </mxCell>
        <mxCell id="nXuBNPTSIWch-IA69Y4a-170" value="*" style="text;html=1;align=center;verticalAlign=middle;resizable=0;points=[];autosize=1;strokeColor=none;fillColor=none;" vertex="1" parent="1">
          <mxGeometry x="261.5" y="1017" width="30" height="30" as="geometry" />
        </mxCell>
        <mxCell id="nXuBNPTSIWch-IA69Y4a-171" value="«Control»&#xa;CRTVoltarEvadido" style="swimlane;fontStyle=0;childLayout=stackLayout;horizontal=1;startSize=30;fillColor=none;horizontalStack=0;resizeParent=1;resizeParentMax=0;resizeLast=0;collapsible=1;marginBottom=0;" vertex="1" parent="1">
          <mxGeometry x="703" y="816" width="119" height="90" as="geometry">
            <mxRectangle x="470" y="300" width="150" height="40" as="alternateBounds" />
          </mxGeometry>
        </mxCell>
        <mxCell id="nXuBNPTSIWch-IA69Y4a-172" value="alterar ( )&#xa;buscar ( )&#xa;salvar ( )&#xa;evadir ( )" style="text;strokeColor=#212121;fillColor=none;align=left;verticalAlign=middle;spacingLeft=4;spacingRight=4;overflow=hidden;points=[[0,0.5],[1,0.5]];portConstraint=eastwest;rotatable=0;" vertex="1" parent="nXuBNPTSIWch-IA69Y4a-171">
          <mxGeometry y="30" width="119" height="60" as="geometry" />
        </mxCell>
        <mxCell id="nXuBNPTSIWch-IA69Y4a-173" value="«Boundary»&lt;br&gt;&lt;b&gt;Frm&lt;/b&gt;" style="html=1;" vertex="1" parent="1">
          <mxGeometry x="423" y="816" width="130" height="50" as="geometry" />
        </mxCell>
        <mxCell id="nXuBNPTSIWch-IA69Y4a-174" value="" style="endArrow=none;html=1;rounded=0;" edge="1" parent="1" source="nXuBNPTSIWch-IA69Y4a-179" target="nXuBNPTSIWch-IA69Y4a-171">
          <mxGeometry width="50" height="50" relative="1" as="geometry">
            <mxPoint x="873" y="1006" as="sourcePoint" />
            <mxPoint x="872.04" y="908.01" as="targetPoint" />
          </mxGeometry>
        </mxCell>
        <mxCell id="nXuBNPTSIWch-IA69Y4a-175" value="" style="endArrow=none;html=1;rounded=0;entryX=0;entryY=0.25;entryDx=0;entryDy=0;" edge="1" parent="1" source="nXuBNPTSIWch-IA69Y4a-173" target="nXuBNPTSIWch-IA69Y4a-171">
          <mxGeometry width="50" height="50" relative="1" as="geometry">
            <mxPoint x="683" y="906" as="sourcePoint" />
            <mxPoint x="713" y="821" as="targetPoint" />
          </mxGeometry>
        </mxCell>
        <mxCell id="nXuBNPTSIWch-IA69Y4a-176" value="«Entity»&#xa;Paciente" style="swimlane;fontStyle=0;childLayout=stackLayout;horizontal=1;startSize=30;horizontalStack=0;resizeParent=1;resizeParentMax=0;resizeLast=0;collapsible=1;marginBottom=0;strokeColor=#212121;" collapsed="1" vertex="1" parent="1">
          <mxGeometry x="423" y="1023" width="90" height="30" as="geometry">
            <mxRectangle x="560" y="901" width="189" height="330" as="alternateBounds" />
          </mxGeometry>
        </mxCell>
        <mxCell id="nXuBNPTSIWch-IA69Y4a-177" value="- idPac&#xa;- dtNascPac&#xa;- rgPac&#xa;- cpfPac&#xa;- nomePac&#xa;- endPac&#xa;- numPac&#xa;- complementoPac&#xa;- bairroPac&#xa;- estadoPac&#xa;- cidadePac&#xa;- cepPac&#xa;- telPac&#xa;- cartaoSusPac&#xa;- numConvenioPac&#xa;- tipoConvenioPac&#xa;- alergiasPac&#xa;- classifRiscoPac" style="text;strokeColor=#212121;fillColor=none;align=left;verticalAlign=middle;spacingLeft=4;spacingRight=4;overflow=hidden;points=[[0,0.5],[1,0.5]];portConstraint=eastwest;rotatable=0;" vertex="1" parent="nXuBNPTSIWch-IA69Y4a-176">
          <mxGeometry y="30" width="189" height="270" as="geometry" />
        </mxCell>
        <mxCell id="nXuBNPTSIWch-IA69Y4a-178" value="- calcIdade( )" style="text;strokeColor=#212121;fillColor=none;align=left;verticalAlign=middle;spacingLeft=4;spacingRight=4;overflow=hidden;points=[[0,0.5],[1,0.5]];portConstraint=eastwest;rotatable=0;" vertex="1" parent="nXuBNPTSIWch-IA69Y4a-176">
          <mxGeometry y="300" width="189" height="30" as="geometry" />
        </mxCell>
        <mxCell id="nXuBNPTSIWch-IA69Y4a-179" value="«Entity»&#xa;Atendimento" style="swimlane;fontStyle=0;childLayout=stackLayout;horizontal=1;startSize=30;horizontalStack=0;resizeParent=1;resizeParentMax=0;resizeLast=0;collapsible=1;marginBottom=0;strokeColor=#212121;" collapsed="1" vertex="1" parent="1">
          <mxGeometry x="707.5" y="1023" width="110" height="30" as="geometry">
            <mxRectangle x="277" y="847.5" width="189" height="310" as="alternateBounds" />
          </mxGeometry>
        </mxCell>
        <mxCell id="nXuBNPTSIWch-IA69Y4a-180" value="- senhaAtend&#xa;- dtAtend&#xa;- entradaHospAtend&#xa;- saidaHospAtend&#xa;- inicioAtend&#xa;- fimAtend&#xa;- dtAlta" style="text;strokeColor=#212121;fillColor=none;align=left;verticalAlign=middle;spacingLeft=4;spacingRight=4;overflow=hidden;points=[[0,0.5],[1,0.5]];portConstraint=eastwest;rotatable=0;" vertex="1" parent="nXuBNPTSIWch-IA69Y4a-179">
          <mxGeometry y="30" width="189" height="110" as="geometry" />
        </mxCell>
        <mxCell id="nXuBNPTSIWch-IA69Y4a-181" value="+ tempParaAtend ( )&#xa;+ tempAtend ( )&#xa;+ isAltaAtend ( )&#xa;+ filaRecepcao ( )&#xa;+ filaTriagem ( )&#xa;+ filaAtendimento ( )&#xa;+ filaEspecialidade ( )&#xa;+ filaMedicacao ( )&#xa;+ filaExames ( ) &#xa;+ filaInternacao ( )&#xa;+ filaCirurgia ( )" style="text;strokeColor=#212121;fillColor=none;align=left;verticalAlign=middle;spacingLeft=4;spacingRight=4;overflow=hidden;points=[[0,0.5],[1,0.5]];portConstraint=eastwest;rotatable=0;" vertex="1" parent="nXuBNPTSIWch-IA69Y4a-179">
          <mxGeometry y="140" width="189" height="170" as="geometry" />
        </mxCell>
        <mxCell id="nXuBNPTSIWch-IA69Y4a-182" value="«Entity»&#xa;Funcionário" style="swimlane;fontStyle=0;childLayout=stackLayout;horizontal=1;startSize=30;horizontalStack=0;resizeParent=1;resizeParentMax=0;resizeLast=0;collapsible=1;marginBottom=0;strokeColor=#212121;" collapsed="1" vertex="1" parent="1">
          <mxGeometry x="423" y="936" width="100" height="30" as="geometry">
            <mxRectangle x="10" y="585" width="189" height="280" as="alternateBounds" />
          </mxGeometry>
        </mxCell>
        <mxCell id="nXuBNPTSIWch-IA69Y4a-183" value="- idFunc&#xa;- dtNascFunc&#xa;- rgFunc&#xa;- cpfFunc&#xa;- nomeFunc&#xa;- endFunc&#xa;- numFunc&#xa;- complementoFunc&#xa;- bairroFunc&#xa;- estadoFunc&#xa;- cidadeFunc&#xa;- cepFunc&#xa;- telFunc&#xa;- contratacaoFunc" style="text;strokeColor=#212121;fillColor=none;align=left;verticalAlign=middle;spacingLeft=4;spacingRight=4;overflow=hidden;points=[[0,0.5],[1,0.5]];portConstraint=eastwest;rotatable=0;" vertex="1" parent="nXuBNPTSIWch-IA69Y4a-182">
          <mxGeometry y="30" width="189" height="210" as="geometry" />
        </mxCell>
        <mxCell id="nXuBNPTSIWch-IA69Y4a-184" value="- anosServ( )&#xa;- calcIdade( )" style="text;strokeColor=#212121;fillColor=none;align=left;verticalAlign=middle;spacingLeft=4;spacingRight=4;overflow=hidden;points=[[0,0.5],[1,0.5]];portConstraint=eastwest;rotatable=0;" vertex="1" parent="nXuBNPTSIWch-IA69Y4a-182">
          <mxGeometry y="240" width="189" height="40" as="geometry" />
        </mxCell>
        <mxCell id="nXuBNPTSIWch-IA69Y4a-185" value="" style="endArrow=none;html=1;rounded=0;edgeStyle=orthogonalEdgeStyle;" edge="1" parent="1" source="nXuBNPTSIWch-IA69Y4a-182" target="nXuBNPTSIWch-IA69Y4a-179">
          <mxGeometry width="50" height="50" relative="1" as="geometry">
            <mxPoint x="862" y="1329.5" as="sourcePoint" />
            <mxPoint x="912" y="1279.5" as="targetPoint" />
            <Array as="points">
              <mxPoint x="582" y="951" />
              <mxPoint x="582" y="1038" />
            </Array>
          </mxGeometry>
        </mxCell>
        <mxCell id="nXuBNPTSIWch-IA69Y4a-186" value="" style="endArrow=none;html=1;rounded=0;" edge="1" parent="1" source="nXuBNPTSIWch-IA69Y4a-179" target="nXuBNPTSIWch-IA69Y4a-176">
          <mxGeometry width="50" height="50" relative="1" as="geometry">
            <mxPoint x="1031.0000000000002" y="1338.125" as="sourcePoint" />
            <mxPoint x="1112" y="1370.375" as="targetPoint" />
          </mxGeometry>
        </mxCell>
        <mxCell id="nXuBNPTSIWch-IA69Y4a-187" value="1" style="text;html=1;align=center;verticalAlign=middle;resizable=0;points=[];autosize=1;strokeColor=none;fillColor=none;" vertex="1" parent="1">
          <mxGeometry x="509" y="1016" width="30" height="30" as="geometry" />
        </mxCell>
        <mxCell id="nXuBNPTSIWch-IA69Y4a-188" value="1" style="text;html=1;align=center;verticalAlign=middle;resizable=0;points=[];autosize=1;strokeColor=none;fillColor=none;" vertex="1" parent="1">
          <mxGeometry x="518" y="927" width="30" height="30" as="geometry" />
        </mxCell>
        <mxCell id="nXuBNPTSIWch-IA69Y4a-189" value="*" style="text;html=1;align=center;verticalAlign=middle;resizable=0;points=[];autosize=1;strokeColor=none;fillColor=none;" vertex="1" parent="1">
          <mxGeometry x="677.5" y="1017" width="30" height="30" as="geometry" />
        </mxCell>
        <mxCell id="nXuBNPTSIWch-IA69Y4a-190" value="«Control»&#xa;CRTConfirmarPac" style="swimlane;fontStyle=0;childLayout=stackLayout;horizontal=1;startSize=30;fillColor=none;horizontalStack=0;resizeParent=1;resizeParentMax=0;resizeLast=0;collapsible=1;marginBottom=0;" vertex="1" parent="1">
          <mxGeometry x="1113" y="36" width="119" height="90" as="geometry">
            <mxRectangle x="470" y="300" width="150" height="40" as="alternateBounds" />
          </mxGeometry>
        </mxCell>
        <mxCell id="nXuBNPTSIWch-IA69Y4a-191" value="alterar ( )&#xa;buscar ( )&#xa;salvar ( )&#xa;evadir ( )" style="text;strokeColor=#212121;fillColor=none;align=left;verticalAlign=middle;spacingLeft=4;spacingRight=4;overflow=hidden;points=[[0,0.5],[1,0.5]];portConstraint=eastwest;rotatable=0;" vertex="1" parent="nXuBNPTSIWch-IA69Y4a-190">
          <mxGeometry y="30" width="119" height="60" as="geometry" />
        </mxCell>
        <mxCell id="nXuBNPTSIWch-IA69Y4a-192" value="«Boundary»&lt;br&gt;&lt;b&gt;Frm&lt;/b&gt;" style="html=1;" vertex="1" parent="1">
          <mxGeometry x="833" y="36" width="130" height="50" as="geometry" />
        </mxCell>
        <mxCell id="nXuBNPTSIWch-IA69Y4a-193" value="" style="endArrow=none;html=1;rounded=0;" edge="1" parent="1" source="nXuBNPTSIWch-IA69Y4a-198" target="nXuBNPTSIWch-IA69Y4a-190">
          <mxGeometry width="50" height="50" relative="1" as="geometry">
            <mxPoint x="1283" y="226" as="sourcePoint" />
            <mxPoint x="1282.04" y="128.01" as="targetPoint" />
          </mxGeometry>
        </mxCell>
        <mxCell id="nXuBNPTSIWch-IA69Y4a-194" value="" style="endArrow=none;html=1;rounded=0;entryX=0;entryY=0.25;entryDx=0;entryDy=0;" edge="1" parent="1" source="nXuBNPTSIWch-IA69Y4a-192" target="nXuBNPTSIWch-IA69Y4a-190">
          <mxGeometry width="50" height="50" relative="1" as="geometry">
            <mxPoint x="1093" y="126" as="sourcePoint" />
            <mxPoint x="1123" y="41" as="targetPoint" />
          </mxGeometry>
        </mxCell>
        <mxCell id="nXuBNPTSIWch-IA69Y4a-195" value="«Entity»&#xa;Paciente" style="swimlane;fontStyle=0;childLayout=stackLayout;horizontal=1;startSize=30;horizontalStack=0;resizeParent=1;resizeParentMax=0;resizeLast=0;collapsible=1;marginBottom=0;strokeColor=#212121;" collapsed="1" vertex="1" parent="1">
          <mxGeometry x="833" y="243" width="90" height="30" as="geometry">
            <mxRectangle x="560" y="901" width="189" height="330" as="alternateBounds" />
          </mxGeometry>
        </mxCell>
        <mxCell id="nXuBNPTSIWch-IA69Y4a-196" value="- idPac&#xa;- dtNascPac&#xa;- rgPac&#xa;- cpfPac&#xa;- nomePac&#xa;- endPac&#xa;- numPac&#xa;- complementoPac&#xa;- bairroPac&#xa;- estadoPac&#xa;- cidadePac&#xa;- cepPac&#xa;- telPac&#xa;- cartaoSusPac&#xa;- numConvenioPac&#xa;- tipoConvenioPac&#xa;- alergiasPac&#xa;- classifRiscoPac" style="text;strokeColor=#212121;fillColor=none;align=left;verticalAlign=middle;spacingLeft=4;spacingRight=4;overflow=hidden;points=[[0,0.5],[1,0.5]];portConstraint=eastwest;rotatable=0;" vertex="1" parent="nXuBNPTSIWch-IA69Y4a-195">
          <mxGeometry y="30" width="189" height="270" as="geometry" />
        </mxCell>
        <mxCell id="nXuBNPTSIWch-IA69Y4a-197" value="- calcIdade( )" style="text;strokeColor=#212121;fillColor=none;align=left;verticalAlign=middle;spacingLeft=4;spacingRight=4;overflow=hidden;points=[[0,0.5],[1,0.5]];portConstraint=eastwest;rotatable=0;" vertex="1" parent="nXuBNPTSIWch-IA69Y4a-195">
          <mxGeometry y="300" width="189" height="30" as="geometry" />
        </mxCell>
        <mxCell id="nXuBNPTSIWch-IA69Y4a-198" value="«Entity»&#xa;Atendimento" style="swimlane;fontStyle=0;childLayout=stackLayout;horizontal=1;startSize=30;horizontalStack=0;resizeParent=1;resizeParentMax=0;resizeLast=0;collapsible=1;marginBottom=0;strokeColor=#212121;" collapsed="1" vertex="1" parent="1">
          <mxGeometry x="1117.5" y="243" width="110" height="30" as="geometry">
            <mxRectangle x="277" y="847.5" width="189" height="310" as="alternateBounds" />
          </mxGeometry>
        </mxCell>
        <mxCell id="nXuBNPTSIWch-IA69Y4a-199" value="- senhaAtend&#xa;- dtAtend&#xa;- entradaHospAtend&#xa;- saidaHospAtend&#xa;- inicioAtend&#xa;- fimAtend&#xa;- dtAlta" style="text;strokeColor=#212121;fillColor=none;align=left;verticalAlign=middle;spacingLeft=4;spacingRight=4;overflow=hidden;points=[[0,0.5],[1,0.5]];portConstraint=eastwest;rotatable=0;" vertex="1" parent="nXuBNPTSIWch-IA69Y4a-198">
          <mxGeometry y="30" width="189" height="110" as="geometry" />
        </mxCell>
        <mxCell id="nXuBNPTSIWch-IA69Y4a-200" value="+ tempParaAtend ( )&#xa;+ tempAtend ( )&#xa;+ isAltaAtend ( )&#xa;+ filaRecepcao ( )&#xa;+ filaTriagem ( )&#xa;+ filaAtendimento ( )&#xa;+ filaEspecialidade ( )&#xa;+ filaMedicacao ( )&#xa;+ filaExames ( ) &#xa;+ filaInternacao ( )&#xa;+ filaCirurgia ( )" style="text;strokeColor=#212121;fillColor=none;align=left;verticalAlign=middle;spacingLeft=4;spacingRight=4;overflow=hidden;points=[[0,0.5],[1,0.5]];portConstraint=eastwest;rotatable=0;" vertex="1" parent="nXuBNPTSIWch-IA69Y4a-198">
          <mxGeometry y="140" width="189" height="170" as="geometry" />
        </mxCell>
        <mxCell id="nXuBNPTSIWch-IA69Y4a-201" value="«Entity»&#xa;Funcionário" style="swimlane;fontStyle=0;childLayout=stackLayout;horizontal=1;startSize=30;horizontalStack=0;resizeParent=1;resizeParentMax=0;resizeLast=0;collapsible=1;marginBottom=0;strokeColor=#212121;" collapsed="1" vertex="1" parent="1">
          <mxGeometry x="833" y="156" width="100" height="30" as="geometry">
            <mxRectangle x="10" y="585" width="189" height="280" as="alternateBounds" />
          </mxGeometry>
        </mxCell>
        <mxCell id="nXuBNPTSIWch-IA69Y4a-202" value="- idFunc&#xa;- dtNascFunc&#xa;- rgFunc&#xa;- cpfFunc&#xa;- nomeFunc&#xa;- endFunc&#xa;- numFunc&#xa;- complementoFunc&#xa;- bairroFunc&#xa;- estadoFunc&#xa;- cidadeFunc&#xa;- cepFunc&#xa;- telFunc&#xa;- contratacaoFunc" style="text;strokeColor=#212121;fillColor=none;align=left;verticalAlign=middle;spacingLeft=4;spacingRight=4;overflow=hidden;points=[[0,0.5],[1,0.5]];portConstraint=eastwest;rotatable=0;" vertex="1" parent="nXuBNPTSIWch-IA69Y4a-201">
          <mxGeometry y="30" width="189" height="210" as="geometry" />
        </mxCell>
        <mxCell id="nXuBNPTSIWch-IA69Y4a-203" value="- anosServ( )&#xa;- calcIdade( )" style="text;strokeColor=#212121;fillColor=none;align=left;verticalAlign=middle;spacingLeft=4;spacingRight=4;overflow=hidden;points=[[0,0.5],[1,0.5]];portConstraint=eastwest;rotatable=0;" vertex="1" parent="nXuBNPTSIWch-IA69Y4a-201">
          <mxGeometry y="240" width="189" height="40" as="geometry" />
        </mxCell>
        <mxCell id="nXuBNPTSIWch-IA69Y4a-204" value="" style="endArrow=none;html=1;rounded=0;edgeStyle=orthogonalEdgeStyle;" edge="1" parent="1" source="nXuBNPTSIWch-IA69Y4a-201" target="nXuBNPTSIWch-IA69Y4a-198">
          <mxGeometry width="50" height="50" relative="1" as="geometry">
            <mxPoint x="1272" y="549.5" as="sourcePoint" />
            <mxPoint x="1322" y="499.5" as="targetPoint" />
            <Array as="points">
              <mxPoint x="992" y="171" />
              <mxPoint x="992" y="258" />
            </Array>
          </mxGeometry>
        </mxCell>
        <mxCell id="nXuBNPTSIWch-IA69Y4a-205" value="" style="endArrow=none;html=1;rounded=0;" edge="1" parent="1" source="nXuBNPTSIWch-IA69Y4a-198" target="nXuBNPTSIWch-IA69Y4a-195">
          <mxGeometry width="50" height="50" relative="1" as="geometry">
            <mxPoint x="1441.0000000000002" y="558.125" as="sourcePoint" />
            <mxPoint x="1522" y="590.375" as="targetPoint" />
          </mxGeometry>
        </mxCell>
        <mxCell id="nXuBNPTSIWch-IA69Y4a-206" value="1" style="text;html=1;align=center;verticalAlign=middle;resizable=0;points=[];autosize=1;strokeColor=none;fillColor=none;" vertex="1" parent="1">
          <mxGeometry x="919" y="236" width="30" height="30" as="geometry" />
        </mxCell>
        <mxCell id="nXuBNPTSIWch-IA69Y4a-207" value="1" style="text;html=1;align=center;verticalAlign=middle;resizable=0;points=[];autosize=1;strokeColor=none;fillColor=none;" vertex="1" parent="1">
          <mxGeometry x="928" y="147" width="30" height="30" as="geometry" />
        </mxCell>
        <mxCell id="nXuBNPTSIWch-IA69Y4a-208" value="*" style="text;html=1;align=center;verticalAlign=middle;resizable=0;points=[];autosize=1;strokeColor=none;fillColor=none;" vertex="1" parent="1">
          <mxGeometry x="1087.5" y="237" width="30" height="30" as="geometry" />
        </mxCell>
        <mxCell id="nXuBNPTSIWch-IA69Y4a-209" value="«Control»&#xa;CRTChamarPac" style="swimlane;fontStyle=0;childLayout=stackLayout;horizontal=1;startSize=30;fillColor=none;horizontalStack=0;resizeParent=1;resizeParentMax=0;resizeLast=0;collapsible=1;marginBottom=0;" vertex="1" parent="1">
          <mxGeometry x="1529" y="36" width="119" height="90" as="geometry">
            <mxRectangle x="470" y="300" width="150" height="40" as="alternateBounds" />
          </mxGeometry>
        </mxCell>
        <mxCell id="nXuBNPTSIWch-IA69Y4a-210" value="alterar ( )&#xa;buscar ( )&#xa;salvar ( )&#xa;evadir ( )" style="text;strokeColor=#212121;fillColor=none;align=left;verticalAlign=middle;spacingLeft=4;spacingRight=4;overflow=hidden;points=[[0,0.5],[1,0.5]];portConstraint=eastwest;rotatable=0;" vertex="1" parent="nXuBNPTSIWch-IA69Y4a-209">
          <mxGeometry y="30" width="119" height="60" as="geometry" />
        </mxCell>
        <mxCell id="nXuBNPTSIWch-IA69Y4a-211" value="«Boundary»&lt;br&gt;&lt;b&gt;Frm&lt;/b&gt;" style="html=1;" vertex="1" parent="1">
          <mxGeometry x="1249" y="36" width="130" height="50" as="geometry" />
        </mxCell>
        <mxCell id="nXuBNPTSIWch-IA69Y4a-212" value="" style="endArrow=none;html=1;rounded=0;" edge="1" parent="1" source="nXuBNPTSIWch-IA69Y4a-217" target="nXuBNPTSIWch-IA69Y4a-209">
          <mxGeometry width="50" height="50" relative="1" as="geometry">
            <mxPoint x="1699" y="226" as="sourcePoint" />
            <mxPoint x="1698.04" y="128.01" as="targetPoint" />
          </mxGeometry>
        </mxCell>
        <mxCell id="nXuBNPTSIWch-IA69Y4a-213" value="" style="endArrow=none;html=1;rounded=0;entryX=0;entryY=0.25;entryDx=0;entryDy=0;" edge="1" parent="1" source="nXuBNPTSIWch-IA69Y4a-211" target="nXuBNPTSIWch-IA69Y4a-209">
          <mxGeometry width="50" height="50" relative="1" as="geometry">
            <mxPoint x="1509" y="126" as="sourcePoint" />
            <mxPoint x="1539" y="41" as="targetPoint" />
          </mxGeometry>
        </mxCell>
        <mxCell id="nXuBNPTSIWch-IA69Y4a-214" value="«Entity»&#xa;Paciente" style="swimlane;fontStyle=0;childLayout=stackLayout;horizontal=1;startSize=30;horizontalStack=0;resizeParent=1;resizeParentMax=0;resizeLast=0;collapsible=1;marginBottom=0;strokeColor=#212121;" collapsed="1" vertex="1" parent="1">
          <mxGeometry x="1249" y="243" width="90" height="30" as="geometry">
            <mxRectangle x="560" y="901" width="189" height="330" as="alternateBounds" />
          </mxGeometry>
        </mxCell>
        <mxCell id="nXuBNPTSIWch-IA69Y4a-215" value="- idPac&#xa;- dtNascPac&#xa;- rgPac&#xa;- cpfPac&#xa;- nomePac&#xa;- endPac&#xa;- numPac&#xa;- complementoPac&#xa;- bairroPac&#xa;- estadoPac&#xa;- cidadePac&#xa;- cepPac&#xa;- telPac&#xa;- cartaoSusPac&#xa;- numConvenioPac&#xa;- tipoConvenioPac&#xa;- alergiasPac&#xa;- classifRiscoPac" style="text;strokeColor=#212121;fillColor=none;align=left;verticalAlign=middle;spacingLeft=4;spacingRight=4;overflow=hidden;points=[[0,0.5],[1,0.5]];portConstraint=eastwest;rotatable=0;" vertex="1" parent="nXuBNPTSIWch-IA69Y4a-214">
          <mxGeometry y="30" width="189" height="270" as="geometry" />
        </mxCell>
        <mxCell id="nXuBNPTSIWch-IA69Y4a-216" value="- calcIdade( )" style="text;strokeColor=#212121;fillColor=none;align=left;verticalAlign=middle;spacingLeft=4;spacingRight=4;overflow=hidden;points=[[0,0.5],[1,0.5]];portConstraint=eastwest;rotatable=0;" vertex="1" parent="nXuBNPTSIWch-IA69Y4a-214">
          <mxGeometry y="300" width="189" height="30" as="geometry" />
        </mxCell>
        <mxCell id="nXuBNPTSIWch-IA69Y4a-217" value="«Entity»&#xa;Atendimento" style="swimlane;fontStyle=0;childLayout=stackLayout;horizontal=1;startSize=30;horizontalStack=0;resizeParent=1;resizeParentMax=0;resizeLast=0;collapsible=1;marginBottom=0;strokeColor=#212121;" collapsed="1" vertex="1" parent="1">
          <mxGeometry x="1533.5" y="243" width="110" height="30" as="geometry">
            <mxRectangle x="277" y="847.5" width="189" height="310" as="alternateBounds" />
          </mxGeometry>
        </mxCell>
        <mxCell id="nXuBNPTSIWch-IA69Y4a-218" value="- senhaAtend&#xa;- dtAtend&#xa;- entradaHospAtend&#xa;- saidaHospAtend&#xa;- inicioAtend&#xa;- fimAtend&#xa;- dtAlta" style="text;strokeColor=#212121;fillColor=none;align=left;verticalAlign=middle;spacingLeft=4;spacingRight=4;overflow=hidden;points=[[0,0.5],[1,0.5]];portConstraint=eastwest;rotatable=0;" vertex="1" parent="nXuBNPTSIWch-IA69Y4a-217">
          <mxGeometry y="30" width="189" height="110" as="geometry" />
        </mxCell>
        <mxCell id="nXuBNPTSIWch-IA69Y4a-219" value="+ tempParaAtend ( )&#xa;+ tempAtend ( )&#xa;+ isAltaAtend ( )&#xa;+ filaRecepcao ( )&#xa;+ filaTriagem ( )&#xa;+ filaAtendimento ( )&#xa;+ filaEspecialidade ( )&#xa;+ filaMedicacao ( )&#xa;+ filaExames ( ) &#xa;+ filaInternacao ( )&#xa;+ filaCirurgia ( )" style="text;strokeColor=#212121;fillColor=none;align=left;verticalAlign=middle;spacingLeft=4;spacingRight=4;overflow=hidden;points=[[0,0.5],[1,0.5]];portConstraint=eastwest;rotatable=0;" vertex="1" parent="nXuBNPTSIWch-IA69Y4a-217">
          <mxGeometry y="140" width="189" height="170" as="geometry" />
        </mxCell>
        <mxCell id="nXuBNPTSIWch-IA69Y4a-220" value="«Entity»&#xa;Funcionário" style="swimlane;fontStyle=0;childLayout=stackLayout;horizontal=1;startSize=30;horizontalStack=0;resizeParent=1;resizeParentMax=0;resizeLast=0;collapsible=1;marginBottom=0;strokeColor=#212121;" collapsed="1" vertex="1" parent="1">
          <mxGeometry x="1249" y="156" width="100" height="30" as="geometry">
            <mxRectangle x="10" y="585" width="189" height="280" as="alternateBounds" />
          </mxGeometry>
        </mxCell>
        <mxCell id="nXuBNPTSIWch-IA69Y4a-221" value="- idFunc&#xa;- dtNascFunc&#xa;- rgFunc&#xa;- cpfFunc&#xa;- nomeFunc&#xa;- endFunc&#xa;- numFunc&#xa;- complementoFunc&#xa;- bairroFunc&#xa;- estadoFunc&#xa;- cidadeFunc&#xa;- cepFunc&#xa;- telFunc&#xa;- contratacaoFunc" style="text;strokeColor=#212121;fillColor=none;align=left;verticalAlign=middle;spacingLeft=4;spacingRight=4;overflow=hidden;points=[[0,0.5],[1,0.5]];portConstraint=eastwest;rotatable=0;" vertex="1" parent="nXuBNPTSIWch-IA69Y4a-220">
          <mxGeometry y="30" width="189" height="210" as="geometry" />
        </mxCell>
        <mxCell id="nXuBNPTSIWch-IA69Y4a-222" value="- anosServ( )&#xa;- calcIdade( )" style="text;strokeColor=#212121;fillColor=none;align=left;verticalAlign=middle;spacingLeft=4;spacingRight=4;overflow=hidden;points=[[0,0.5],[1,0.5]];portConstraint=eastwest;rotatable=0;" vertex="1" parent="nXuBNPTSIWch-IA69Y4a-220">
          <mxGeometry y="240" width="189" height="40" as="geometry" />
        </mxCell>
        <mxCell id="nXuBNPTSIWch-IA69Y4a-223" value="" style="endArrow=none;html=1;rounded=0;edgeStyle=orthogonalEdgeStyle;" edge="1" parent="1" source="nXuBNPTSIWch-IA69Y4a-220" target="nXuBNPTSIWch-IA69Y4a-217">
          <mxGeometry width="50" height="50" relative="1" as="geometry">
            <mxPoint x="1688" y="549.5" as="sourcePoint" />
            <mxPoint x="1738" y="499.5" as="targetPoint" />
            <Array as="points">
              <mxPoint x="1408" y="171" />
              <mxPoint x="1408" y="258" />
            </Array>
          </mxGeometry>
        </mxCell>
        <mxCell id="nXuBNPTSIWch-IA69Y4a-224" value="" style="endArrow=none;html=1;rounded=0;" edge="1" parent="1" source="nXuBNPTSIWch-IA69Y4a-217" target="nXuBNPTSIWch-IA69Y4a-214">
          <mxGeometry width="50" height="50" relative="1" as="geometry">
            <mxPoint x="1857.0000000000002" y="558.125" as="sourcePoint" />
            <mxPoint x="1938" y="590.375" as="targetPoint" />
          </mxGeometry>
        </mxCell>
        <mxCell id="nXuBNPTSIWch-IA69Y4a-225" value="1" style="text;html=1;align=center;verticalAlign=middle;resizable=0;points=[];autosize=1;strokeColor=none;fillColor=none;" vertex="1" parent="1">
          <mxGeometry x="1335" y="236" width="30" height="30" as="geometry" />
        </mxCell>
        <mxCell id="nXuBNPTSIWch-IA69Y4a-226" value="1" style="text;html=1;align=center;verticalAlign=middle;resizable=0;points=[];autosize=1;strokeColor=none;fillColor=none;" vertex="1" parent="1">
          <mxGeometry x="1344" y="147" width="30" height="30" as="geometry" />
        </mxCell>
        <mxCell id="nXuBNPTSIWch-IA69Y4a-227" value="*" style="text;html=1;align=center;verticalAlign=middle;resizable=0;points=[];autosize=1;strokeColor=none;fillColor=none;" vertex="1" parent="1">
          <mxGeometry x="1503.5" y="237" width="30" height="30" as="geometry" />
        </mxCell>
        <mxCell id="nXuBNPTSIWch-IA69Y4a-228" value="«Control»&#xa;CRTAjustarPrioridade" style="swimlane;fontStyle=0;childLayout=stackLayout;horizontal=1;startSize=30;fillColor=none;horizontalStack=0;resizeParent=1;resizeParentMax=0;resizeLast=0;collapsible=1;marginBottom=0;" vertex="1" parent="1">
          <mxGeometry x="1114" y="298" width="119" height="90" as="geometry">
            <mxRectangle x="470" y="300" width="150" height="40" as="alternateBounds" />
          </mxGeometry>
        </mxCell>
        <mxCell id="nXuBNPTSIWch-IA69Y4a-229" value="alterar ( )&#xa;buscar ( )&#xa;salvar ( )&#xa;evadir ( )" style="text;strokeColor=#212121;fillColor=none;align=left;verticalAlign=middle;spacingLeft=4;spacingRight=4;overflow=hidden;points=[[0,0.5],[1,0.5]];portConstraint=eastwest;rotatable=0;" vertex="1" parent="nXuBNPTSIWch-IA69Y4a-228">
          <mxGeometry y="30" width="119" height="60" as="geometry" />
        </mxCell>
        <mxCell id="nXuBNPTSIWch-IA69Y4a-230" value="«Boundary»&lt;br&gt;&lt;b&gt;Frm&lt;/b&gt;" style="html=1;" vertex="1" parent="1">
          <mxGeometry x="834" y="298" width="130" height="50" as="geometry" />
        </mxCell>
        <mxCell id="nXuBNPTSIWch-IA69Y4a-231" value="" style="endArrow=none;html=1;rounded=0;" edge="1" parent="1" source="nXuBNPTSIWch-IA69Y4a-236" target="nXuBNPTSIWch-IA69Y4a-228">
          <mxGeometry width="50" height="50" relative="1" as="geometry">
            <mxPoint x="1284" y="488" as="sourcePoint" />
            <mxPoint x="1283.04" y="390.01" as="targetPoint" />
          </mxGeometry>
        </mxCell>
        <mxCell id="nXuBNPTSIWch-IA69Y4a-232" value="" style="endArrow=none;html=1;rounded=0;entryX=0;entryY=0.25;entryDx=0;entryDy=0;" edge="1" parent="1" source="nXuBNPTSIWch-IA69Y4a-230" target="nXuBNPTSIWch-IA69Y4a-228">
          <mxGeometry width="50" height="50" relative="1" as="geometry">
            <mxPoint x="1094" y="388" as="sourcePoint" />
            <mxPoint x="1124" y="303" as="targetPoint" />
          </mxGeometry>
        </mxCell>
        <mxCell id="nXuBNPTSIWch-IA69Y4a-233" value="«Entity»&#xa;Paciente" style="swimlane;fontStyle=0;childLayout=stackLayout;horizontal=1;startSize=30;horizontalStack=0;resizeParent=1;resizeParentMax=0;resizeLast=0;collapsible=1;marginBottom=0;strokeColor=#212121;" collapsed="1" vertex="1" parent="1">
          <mxGeometry x="834" y="505" width="90" height="30" as="geometry">
            <mxRectangle x="560" y="901" width="189" height="330" as="alternateBounds" />
          </mxGeometry>
        </mxCell>
        <mxCell id="nXuBNPTSIWch-IA69Y4a-234" value="- idPac&#xa;- dtNascPac&#xa;- rgPac&#xa;- cpfPac&#xa;- nomePac&#xa;- endPac&#xa;- numPac&#xa;- complementoPac&#xa;- bairroPac&#xa;- estadoPac&#xa;- cidadePac&#xa;- cepPac&#xa;- telPac&#xa;- cartaoSusPac&#xa;- numConvenioPac&#xa;- tipoConvenioPac&#xa;- alergiasPac&#xa;- classifRiscoPac" style="text;strokeColor=#212121;fillColor=none;align=left;verticalAlign=middle;spacingLeft=4;spacingRight=4;overflow=hidden;points=[[0,0.5],[1,0.5]];portConstraint=eastwest;rotatable=0;" vertex="1" parent="nXuBNPTSIWch-IA69Y4a-233">
          <mxGeometry y="30" width="189" height="270" as="geometry" />
        </mxCell>
        <mxCell id="nXuBNPTSIWch-IA69Y4a-235" value="- calcIdade( )" style="text;strokeColor=#212121;fillColor=none;align=left;verticalAlign=middle;spacingLeft=4;spacingRight=4;overflow=hidden;points=[[0,0.5],[1,0.5]];portConstraint=eastwest;rotatable=0;" vertex="1" parent="nXuBNPTSIWch-IA69Y4a-233">
          <mxGeometry y="300" width="189" height="30" as="geometry" />
        </mxCell>
        <mxCell id="nXuBNPTSIWch-IA69Y4a-236" value="«Entity»&#xa;Atendimento" style="swimlane;fontStyle=0;childLayout=stackLayout;horizontal=1;startSize=30;horizontalStack=0;resizeParent=1;resizeParentMax=0;resizeLast=0;collapsible=1;marginBottom=0;strokeColor=#212121;" collapsed="1" vertex="1" parent="1">
          <mxGeometry x="1118.5" y="505" width="110" height="30" as="geometry">
            <mxRectangle x="277" y="847.5" width="189" height="310" as="alternateBounds" />
          </mxGeometry>
        </mxCell>
        <mxCell id="nXuBNPTSIWch-IA69Y4a-237" value="- senhaAtend&#xa;- dtAtend&#xa;- entradaHospAtend&#xa;- saidaHospAtend&#xa;- inicioAtend&#xa;- fimAtend&#xa;- dtAlta" style="text;strokeColor=#212121;fillColor=none;align=left;verticalAlign=middle;spacingLeft=4;spacingRight=4;overflow=hidden;points=[[0,0.5],[1,0.5]];portConstraint=eastwest;rotatable=0;" vertex="1" parent="nXuBNPTSIWch-IA69Y4a-236">
          <mxGeometry y="30" width="189" height="110" as="geometry" />
        </mxCell>
        <mxCell id="nXuBNPTSIWch-IA69Y4a-238" value="+ tempParaAtend ( )&#xa;+ tempAtend ( )&#xa;+ isAltaAtend ( )&#xa;+ filaRecepcao ( )&#xa;+ filaTriagem ( )&#xa;+ filaAtendimento ( )&#xa;+ filaEspecialidade ( )&#xa;+ filaMedicacao ( )&#xa;+ filaExames ( ) &#xa;+ filaInternacao ( )&#xa;+ filaCirurgia ( )" style="text;strokeColor=#212121;fillColor=none;align=left;verticalAlign=middle;spacingLeft=4;spacingRight=4;overflow=hidden;points=[[0,0.5],[1,0.5]];portConstraint=eastwest;rotatable=0;" vertex="1" parent="nXuBNPTSIWch-IA69Y4a-236">
          <mxGeometry y="140" width="189" height="170" as="geometry" />
        </mxCell>
        <mxCell id="nXuBNPTSIWch-IA69Y4a-239" value="«Entity»&#xa;Funcionário" style="swimlane;fontStyle=0;childLayout=stackLayout;horizontal=1;startSize=30;horizontalStack=0;resizeParent=1;resizeParentMax=0;resizeLast=0;collapsible=1;marginBottom=0;strokeColor=#212121;" collapsed="1" vertex="1" parent="1">
          <mxGeometry x="834" y="418" width="100" height="30" as="geometry">
            <mxRectangle x="10" y="585" width="189" height="280" as="alternateBounds" />
          </mxGeometry>
        </mxCell>
        <mxCell id="nXuBNPTSIWch-IA69Y4a-240" value="- idFunc&#xa;- dtNascFunc&#xa;- rgFunc&#xa;- cpfFunc&#xa;- nomeFunc&#xa;- endFunc&#xa;- numFunc&#xa;- complementoFunc&#xa;- bairroFunc&#xa;- estadoFunc&#xa;- cidadeFunc&#xa;- cepFunc&#xa;- telFunc&#xa;- contratacaoFunc" style="text;strokeColor=#212121;fillColor=none;align=left;verticalAlign=middle;spacingLeft=4;spacingRight=4;overflow=hidden;points=[[0,0.5],[1,0.5]];portConstraint=eastwest;rotatable=0;" vertex="1" parent="nXuBNPTSIWch-IA69Y4a-239">
          <mxGeometry y="30" width="189" height="210" as="geometry" />
        </mxCell>
        <mxCell id="nXuBNPTSIWch-IA69Y4a-241" value="- anosServ( )&#xa;- calcIdade( )" style="text;strokeColor=#212121;fillColor=none;align=left;verticalAlign=middle;spacingLeft=4;spacingRight=4;overflow=hidden;points=[[0,0.5],[1,0.5]];portConstraint=eastwest;rotatable=0;" vertex="1" parent="nXuBNPTSIWch-IA69Y4a-239">
          <mxGeometry y="240" width="189" height="40" as="geometry" />
        </mxCell>
        <mxCell id="nXuBNPTSIWch-IA69Y4a-242" value="" style="endArrow=none;html=1;rounded=0;edgeStyle=orthogonalEdgeStyle;" edge="1" parent="1" source="nXuBNPTSIWch-IA69Y4a-239" target="nXuBNPTSIWch-IA69Y4a-236">
          <mxGeometry width="50" height="50" relative="1" as="geometry">
            <mxPoint x="1273" y="811.5" as="sourcePoint" />
            <mxPoint x="1323" y="761.5" as="targetPoint" />
            <Array as="points">
              <mxPoint x="993" y="433" />
              <mxPoint x="993" y="520" />
            </Array>
          </mxGeometry>
        </mxCell>
        <mxCell id="nXuBNPTSIWch-IA69Y4a-243" value="" style="endArrow=none;html=1;rounded=0;" edge="1" parent="1" source="nXuBNPTSIWch-IA69Y4a-236" target="nXuBNPTSIWch-IA69Y4a-233">
          <mxGeometry width="50" height="50" relative="1" as="geometry">
            <mxPoint x="1442.0000000000002" y="820.125" as="sourcePoint" />
            <mxPoint x="1523" y="852.375" as="targetPoint" />
          </mxGeometry>
        </mxCell>
        <mxCell id="nXuBNPTSIWch-IA69Y4a-244" value="1" style="text;html=1;align=center;verticalAlign=middle;resizable=0;points=[];autosize=1;strokeColor=none;fillColor=none;" vertex="1" parent="1">
          <mxGeometry x="920" y="498" width="30" height="30" as="geometry" />
        </mxCell>
        <mxCell id="nXuBNPTSIWch-IA69Y4a-245" value="1" style="text;html=1;align=center;verticalAlign=middle;resizable=0;points=[];autosize=1;strokeColor=none;fillColor=none;" vertex="1" parent="1">
          <mxGeometry x="929" y="409" width="30" height="30" as="geometry" />
        </mxCell>
        <mxCell id="nXuBNPTSIWch-IA69Y4a-246" value="*" style="text;html=1;align=center;verticalAlign=middle;resizable=0;points=[];autosize=1;strokeColor=none;fillColor=none;" vertex="1" parent="1">
          <mxGeometry x="1088.5" y="499" width="30" height="30" as="geometry" />
        </mxCell>
        <mxCell id="nXuBNPTSIWch-IA69Y4a-247" value="«Control»&#xa;CRTAlterarFila" style="swimlane;fontStyle=0;childLayout=stackLayout;horizontal=1;startSize=30;fillColor=none;horizontalStack=0;resizeParent=1;resizeParentMax=0;resizeLast=0;collapsible=1;marginBottom=0;" vertex="1" parent="1">
          <mxGeometry x="1530" y="298" width="119" height="90" as="geometry">
            <mxRectangle x="470" y="300" width="150" height="40" as="alternateBounds" />
          </mxGeometry>
        </mxCell>
        <mxCell id="nXuBNPTSIWch-IA69Y4a-248" value="alterar ( )&#xa;buscar ( )&#xa;salvar ( )&#xa;evadir ( )" style="text;strokeColor=#212121;fillColor=none;align=left;verticalAlign=middle;spacingLeft=4;spacingRight=4;overflow=hidden;points=[[0,0.5],[1,0.5]];portConstraint=eastwest;rotatable=0;" vertex="1" parent="nXuBNPTSIWch-IA69Y4a-247">
          <mxGeometry y="30" width="119" height="60" as="geometry" />
        </mxCell>
        <mxCell id="nXuBNPTSIWch-IA69Y4a-249" value="«Boundary»&lt;br&gt;&lt;b&gt;Frm&lt;/b&gt;" style="html=1;" vertex="1" parent="1">
          <mxGeometry x="1250" y="298" width="130" height="50" as="geometry" />
        </mxCell>
        <mxCell id="nXuBNPTSIWch-IA69Y4a-250" value="" style="endArrow=none;html=1;rounded=0;" edge="1" parent="1" source="nXuBNPTSIWch-IA69Y4a-255" target="nXuBNPTSIWch-IA69Y4a-247">
          <mxGeometry width="50" height="50" relative="1" as="geometry">
            <mxPoint x="1700" y="488" as="sourcePoint" />
            <mxPoint x="1699.04" y="390.01" as="targetPoint" />
          </mxGeometry>
        </mxCell>
        <mxCell id="nXuBNPTSIWch-IA69Y4a-251" value="" style="endArrow=none;html=1;rounded=0;entryX=0;entryY=0.25;entryDx=0;entryDy=0;" edge="1" parent="1" source="nXuBNPTSIWch-IA69Y4a-249" target="nXuBNPTSIWch-IA69Y4a-247">
          <mxGeometry width="50" height="50" relative="1" as="geometry">
            <mxPoint x="1510" y="388" as="sourcePoint" />
            <mxPoint x="1540" y="303" as="targetPoint" />
          </mxGeometry>
        </mxCell>
        <mxCell id="nXuBNPTSIWch-IA69Y4a-252" value="«Entity»&#xa;Paciente" style="swimlane;fontStyle=0;childLayout=stackLayout;horizontal=1;startSize=30;horizontalStack=0;resizeParent=1;resizeParentMax=0;resizeLast=0;collapsible=1;marginBottom=0;strokeColor=#212121;" collapsed="1" vertex="1" parent="1">
          <mxGeometry x="1250" y="505" width="90" height="30" as="geometry">
            <mxRectangle x="560" y="901" width="189" height="330" as="alternateBounds" />
          </mxGeometry>
        </mxCell>
        <mxCell id="nXuBNPTSIWch-IA69Y4a-253" value="- idPac&#xa;- dtNascPac&#xa;- rgPac&#xa;- cpfPac&#xa;- nomePac&#xa;- endPac&#xa;- numPac&#xa;- complementoPac&#xa;- bairroPac&#xa;- estadoPac&#xa;- cidadePac&#xa;- cepPac&#xa;- telPac&#xa;- cartaoSusPac&#xa;- numConvenioPac&#xa;- tipoConvenioPac&#xa;- alergiasPac&#xa;- classifRiscoPac" style="text;strokeColor=#212121;fillColor=none;align=left;verticalAlign=middle;spacingLeft=4;spacingRight=4;overflow=hidden;points=[[0,0.5],[1,0.5]];portConstraint=eastwest;rotatable=0;" vertex="1" parent="nXuBNPTSIWch-IA69Y4a-252">
          <mxGeometry y="30" width="189" height="270" as="geometry" />
        </mxCell>
        <mxCell id="nXuBNPTSIWch-IA69Y4a-254" value="- calcIdade( )" style="text;strokeColor=#212121;fillColor=none;align=left;verticalAlign=middle;spacingLeft=4;spacingRight=4;overflow=hidden;points=[[0,0.5],[1,0.5]];portConstraint=eastwest;rotatable=0;" vertex="1" parent="nXuBNPTSIWch-IA69Y4a-252">
          <mxGeometry y="300" width="189" height="30" as="geometry" />
        </mxCell>
        <mxCell id="nXuBNPTSIWch-IA69Y4a-255" value="«Entity»&#xa;Atendimento" style="swimlane;fontStyle=0;childLayout=stackLayout;horizontal=1;startSize=30;horizontalStack=0;resizeParent=1;resizeParentMax=0;resizeLast=0;collapsible=1;marginBottom=0;strokeColor=#212121;" collapsed="1" vertex="1" parent="1">
          <mxGeometry x="1534.5" y="505" width="110" height="30" as="geometry">
            <mxRectangle x="277" y="847.5" width="189" height="310" as="alternateBounds" />
          </mxGeometry>
        </mxCell>
        <mxCell id="nXuBNPTSIWch-IA69Y4a-256" value="- senhaAtend&#xa;- dtAtend&#xa;- entradaHospAtend&#xa;- saidaHospAtend&#xa;- inicioAtend&#xa;- fimAtend&#xa;- dtAlta" style="text;strokeColor=#212121;fillColor=none;align=left;verticalAlign=middle;spacingLeft=4;spacingRight=4;overflow=hidden;points=[[0,0.5],[1,0.5]];portConstraint=eastwest;rotatable=0;" vertex="1" parent="nXuBNPTSIWch-IA69Y4a-255">
          <mxGeometry y="30" width="189" height="110" as="geometry" />
        </mxCell>
        <mxCell id="nXuBNPTSIWch-IA69Y4a-257" value="+ tempParaAtend ( )&#xa;+ tempAtend ( )&#xa;+ isAltaAtend ( )&#xa;+ filaRecepcao ( )&#xa;+ filaTriagem ( )&#xa;+ filaAtendimento ( )&#xa;+ filaEspecialidade ( )&#xa;+ filaMedicacao ( )&#xa;+ filaExames ( ) &#xa;+ filaInternacao ( )&#xa;+ filaCirurgia ( )" style="text;strokeColor=#212121;fillColor=none;align=left;verticalAlign=middle;spacingLeft=4;spacingRight=4;overflow=hidden;points=[[0,0.5],[1,0.5]];portConstraint=eastwest;rotatable=0;" vertex="1" parent="nXuBNPTSIWch-IA69Y4a-255">
          <mxGeometry y="140" width="189" height="170" as="geometry" />
        </mxCell>
        <mxCell id="nXuBNPTSIWch-IA69Y4a-258" value="«Entity»&#xa;Funcionário" style="swimlane;fontStyle=0;childLayout=stackLayout;horizontal=1;startSize=30;horizontalStack=0;resizeParent=1;resizeParentMax=0;resizeLast=0;collapsible=1;marginBottom=0;strokeColor=#212121;" collapsed="1" vertex="1" parent="1">
          <mxGeometry x="1250" y="418" width="100" height="30" as="geometry">
            <mxRectangle x="10" y="585" width="189" height="280" as="alternateBounds" />
          </mxGeometry>
        </mxCell>
        <mxCell id="nXuBNPTSIWch-IA69Y4a-259" value="- idFunc&#xa;- dtNascFunc&#xa;- rgFunc&#xa;- cpfFunc&#xa;- nomeFunc&#xa;- endFunc&#xa;- numFunc&#xa;- complementoFunc&#xa;- bairroFunc&#xa;- estadoFunc&#xa;- cidadeFunc&#xa;- cepFunc&#xa;- telFunc&#xa;- contratacaoFunc" style="text;strokeColor=#212121;fillColor=none;align=left;verticalAlign=middle;spacingLeft=4;spacingRight=4;overflow=hidden;points=[[0,0.5],[1,0.5]];portConstraint=eastwest;rotatable=0;" vertex="1" parent="nXuBNPTSIWch-IA69Y4a-258">
          <mxGeometry y="30" width="189" height="210" as="geometry" />
        </mxCell>
        <mxCell id="nXuBNPTSIWch-IA69Y4a-260" value="- anosServ( )&#xa;- calcIdade( )" style="text;strokeColor=#212121;fillColor=none;align=left;verticalAlign=middle;spacingLeft=4;spacingRight=4;overflow=hidden;points=[[0,0.5],[1,0.5]];portConstraint=eastwest;rotatable=0;" vertex="1" parent="nXuBNPTSIWch-IA69Y4a-258">
          <mxGeometry y="240" width="189" height="40" as="geometry" />
        </mxCell>
        <mxCell id="nXuBNPTSIWch-IA69Y4a-261" value="" style="endArrow=none;html=1;rounded=0;edgeStyle=orthogonalEdgeStyle;" edge="1" parent="1" source="nXuBNPTSIWch-IA69Y4a-258" target="nXuBNPTSIWch-IA69Y4a-255">
          <mxGeometry width="50" height="50" relative="1" as="geometry">
            <mxPoint x="1689" y="811.5" as="sourcePoint" />
            <mxPoint x="1739" y="761.5" as="targetPoint" />
            <Array as="points">
              <mxPoint x="1409" y="433" />
              <mxPoint x="1409" y="520" />
            </Array>
          </mxGeometry>
        </mxCell>
        <mxCell id="nXuBNPTSIWch-IA69Y4a-262" value="" style="endArrow=none;html=1;rounded=0;" edge="1" parent="1" source="nXuBNPTSIWch-IA69Y4a-255" target="nXuBNPTSIWch-IA69Y4a-252">
          <mxGeometry width="50" height="50" relative="1" as="geometry">
            <mxPoint x="1858.0000000000002" y="820.125" as="sourcePoint" />
            <mxPoint x="1939" y="852.375" as="targetPoint" />
          </mxGeometry>
        </mxCell>
        <mxCell id="nXuBNPTSIWch-IA69Y4a-263" value="1" style="text;html=1;align=center;verticalAlign=middle;resizable=0;points=[];autosize=1;strokeColor=none;fillColor=none;" vertex="1" parent="1">
          <mxGeometry x="1336" y="498" width="30" height="30" as="geometry" />
        </mxCell>
        <mxCell id="nXuBNPTSIWch-IA69Y4a-264" value="1" style="text;html=1;align=center;verticalAlign=middle;resizable=0;points=[];autosize=1;strokeColor=none;fillColor=none;" vertex="1" parent="1">
          <mxGeometry x="1345" y="409" width="30" height="30" as="geometry" />
        </mxCell>
        <mxCell id="nXuBNPTSIWch-IA69Y4a-265" value="*" style="text;html=1;align=center;verticalAlign=middle;resizable=0;points=[];autosize=1;strokeColor=none;fillColor=none;" vertex="1" parent="1">
          <mxGeometry x="1504.5" y="499" width="30" height="30" as="geometry" />
        </mxCell>
        <mxCell id="nXuBNPTSIWch-IA69Y4a-266" value="«Control»&#xa;CRTEncamParaMed" style="swimlane;fontStyle=0;childLayout=stackLayout;horizontal=1;startSize=30;fillColor=none;horizontalStack=0;resizeParent=1;resizeParentMax=0;resizeLast=0;collapsible=1;marginBottom=0;" vertex="1" parent="1">
          <mxGeometry x="1109" y="570" width="119" height="90" as="geometry">
            <mxRectangle x="470" y="300" width="150" height="40" as="alternateBounds" />
          </mxGeometry>
        </mxCell>
        <mxCell id="nXuBNPTSIWch-IA69Y4a-267" value="alterar ( )&#xa;buscar ( )&#xa;salvar ( )&#xa;evadir ( )" style="text;strokeColor=#212121;fillColor=none;align=left;verticalAlign=middle;spacingLeft=4;spacingRight=4;overflow=hidden;points=[[0,0.5],[1,0.5]];portConstraint=eastwest;rotatable=0;" vertex="1" parent="nXuBNPTSIWch-IA69Y4a-266">
          <mxGeometry y="30" width="119" height="60" as="geometry" />
        </mxCell>
        <mxCell id="nXuBNPTSIWch-IA69Y4a-268" value="«Boundary»&lt;br&gt;&lt;b&gt;Frm&lt;/b&gt;" style="html=1;" vertex="1" parent="1">
          <mxGeometry x="829" y="570" width="130" height="50" as="geometry" />
        </mxCell>
        <mxCell id="nXuBNPTSIWch-IA69Y4a-269" value="" style="endArrow=none;html=1;rounded=0;" edge="1" parent="1" source="nXuBNPTSIWch-IA69Y4a-274" target="nXuBNPTSIWch-IA69Y4a-266">
          <mxGeometry width="50" height="50" relative="1" as="geometry">
            <mxPoint x="1279" y="760" as="sourcePoint" />
            <mxPoint x="1278.04" y="662.01" as="targetPoint" />
          </mxGeometry>
        </mxCell>
        <mxCell id="nXuBNPTSIWch-IA69Y4a-270" value="" style="endArrow=none;html=1;rounded=0;entryX=0;entryY=0.25;entryDx=0;entryDy=0;" edge="1" parent="1" source="nXuBNPTSIWch-IA69Y4a-268" target="nXuBNPTSIWch-IA69Y4a-266">
          <mxGeometry width="50" height="50" relative="1" as="geometry">
            <mxPoint x="1089" y="660" as="sourcePoint" />
            <mxPoint x="1119" y="575" as="targetPoint" />
          </mxGeometry>
        </mxCell>
        <mxCell id="nXuBNPTSIWch-IA69Y4a-271" value="«Entity»&#xa;Paciente" style="swimlane;fontStyle=0;childLayout=stackLayout;horizontal=1;startSize=30;horizontalStack=0;resizeParent=1;resizeParentMax=0;resizeLast=0;collapsible=1;marginBottom=0;strokeColor=#212121;" collapsed="1" vertex="1" parent="1">
          <mxGeometry x="829" y="777" width="90" height="30" as="geometry">
            <mxRectangle x="560" y="901" width="189" height="330" as="alternateBounds" />
          </mxGeometry>
        </mxCell>
        <mxCell id="nXuBNPTSIWch-IA69Y4a-272" value="- idPac&#xa;- dtNascPac&#xa;- rgPac&#xa;- cpfPac&#xa;- nomePac&#xa;- endPac&#xa;- numPac&#xa;- complementoPac&#xa;- bairroPac&#xa;- estadoPac&#xa;- cidadePac&#xa;- cepPac&#xa;- telPac&#xa;- cartaoSusPac&#xa;- numConvenioPac&#xa;- tipoConvenioPac&#xa;- alergiasPac&#xa;- classifRiscoPac" style="text;strokeColor=#212121;fillColor=none;align=left;verticalAlign=middle;spacingLeft=4;spacingRight=4;overflow=hidden;points=[[0,0.5],[1,0.5]];portConstraint=eastwest;rotatable=0;" vertex="1" parent="nXuBNPTSIWch-IA69Y4a-271">
          <mxGeometry y="30" width="189" height="270" as="geometry" />
        </mxCell>
        <mxCell id="nXuBNPTSIWch-IA69Y4a-273" value="- calcIdade( )" style="text;strokeColor=#212121;fillColor=none;align=left;verticalAlign=middle;spacingLeft=4;spacingRight=4;overflow=hidden;points=[[0,0.5],[1,0.5]];portConstraint=eastwest;rotatable=0;" vertex="1" parent="nXuBNPTSIWch-IA69Y4a-271">
          <mxGeometry y="300" width="189" height="30" as="geometry" />
        </mxCell>
        <mxCell id="nXuBNPTSIWch-IA69Y4a-274" value="«Entity»&#xa;Atendimento" style="swimlane;fontStyle=0;childLayout=stackLayout;horizontal=1;startSize=30;horizontalStack=0;resizeParent=1;resizeParentMax=0;resizeLast=0;collapsible=1;marginBottom=0;strokeColor=#212121;" collapsed="1" vertex="1" parent="1">
          <mxGeometry x="1113.5" y="777" width="110" height="30" as="geometry">
            <mxRectangle x="277" y="847.5" width="189" height="310" as="alternateBounds" />
          </mxGeometry>
        </mxCell>
        <mxCell id="nXuBNPTSIWch-IA69Y4a-275" value="- senhaAtend&#xa;- dtAtend&#xa;- entradaHospAtend&#xa;- saidaHospAtend&#xa;- inicioAtend&#xa;- fimAtend&#xa;- dtAlta" style="text;strokeColor=#212121;fillColor=none;align=left;verticalAlign=middle;spacingLeft=4;spacingRight=4;overflow=hidden;points=[[0,0.5],[1,0.5]];portConstraint=eastwest;rotatable=0;" vertex="1" parent="nXuBNPTSIWch-IA69Y4a-274">
          <mxGeometry y="30" width="189" height="110" as="geometry" />
        </mxCell>
        <mxCell id="nXuBNPTSIWch-IA69Y4a-276" value="+ tempParaAtend ( )&#xa;+ tempAtend ( )&#xa;+ isAltaAtend ( )&#xa;+ filaRecepcao ( )&#xa;+ filaTriagem ( )&#xa;+ filaAtendimento ( )&#xa;+ filaEspecialidade ( )&#xa;+ filaMedicacao ( )&#xa;+ filaExames ( ) &#xa;+ filaInternacao ( )&#xa;+ filaCirurgia ( )" style="text;strokeColor=#212121;fillColor=none;align=left;verticalAlign=middle;spacingLeft=4;spacingRight=4;overflow=hidden;points=[[0,0.5],[1,0.5]];portConstraint=eastwest;rotatable=0;" vertex="1" parent="nXuBNPTSIWch-IA69Y4a-274">
          <mxGeometry y="140" width="189" height="170" as="geometry" />
        </mxCell>
        <mxCell id="nXuBNPTSIWch-IA69Y4a-277" value="«Entity»&#xa;Funcionário" style="swimlane;fontStyle=0;childLayout=stackLayout;horizontal=1;startSize=30;horizontalStack=0;resizeParent=1;resizeParentMax=0;resizeLast=0;collapsible=1;marginBottom=0;strokeColor=#212121;" collapsed="1" vertex="1" parent="1">
          <mxGeometry x="829" y="690" width="100" height="30" as="geometry">
            <mxRectangle x="10" y="585" width="189" height="280" as="alternateBounds" />
          </mxGeometry>
        </mxCell>
        <mxCell id="nXuBNPTSIWch-IA69Y4a-278" value="- idFunc&#xa;- dtNascFunc&#xa;- rgFunc&#xa;- cpfFunc&#xa;- nomeFunc&#xa;- endFunc&#xa;- numFunc&#xa;- complementoFunc&#xa;- bairroFunc&#xa;- estadoFunc&#xa;- cidadeFunc&#xa;- cepFunc&#xa;- telFunc&#xa;- contratacaoFunc" style="text;strokeColor=#212121;fillColor=none;align=left;verticalAlign=middle;spacingLeft=4;spacingRight=4;overflow=hidden;points=[[0,0.5],[1,0.5]];portConstraint=eastwest;rotatable=0;" vertex="1" parent="nXuBNPTSIWch-IA69Y4a-277">
          <mxGeometry y="30" width="189" height="210" as="geometry" />
        </mxCell>
        <mxCell id="nXuBNPTSIWch-IA69Y4a-279" value="- anosServ( )&#xa;- calcIdade( )" style="text;strokeColor=#212121;fillColor=none;align=left;verticalAlign=middle;spacingLeft=4;spacingRight=4;overflow=hidden;points=[[0,0.5],[1,0.5]];portConstraint=eastwest;rotatable=0;" vertex="1" parent="nXuBNPTSIWch-IA69Y4a-277">
          <mxGeometry y="240" width="189" height="40" as="geometry" />
        </mxCell>
        <mxCell id="nXuBNPTSIWch-IA69Y4a-280" value="" style="endArrow=none;html=1;rounded=0;edgeStyle=orthogonalEdgeStyle;" edge="1" parent="1" source="nXuBNPTSIWch-IA69Y4a-277" target="nXuBNPTSIWch-IA69Y4a-274">
          <mxGeometry width="50" height="50" relative="1" as="geometry">
            <mxPoint x="1268" y="1083.5" as="sourcePoint" />
            <mxPoint x="1318" y="1033.5" as="targetPoint" />
            <Array as="points">
              <mxPoint x="988" y="705" />
              <mxPoint x="988" y="792" />
            </Array>
          </mxGeometry>
        </mxCell>
        <mxCell id="nXuBNPTSIWch-IA69Y4a-281" value="" style="endArrow=none;html=1;rounded=0;" edge="1" parent="1" source="nXuBNPTSIWch-IA69Y4a-274" target="nXuBNPTSIWch-IA69Y4a-271">
          <mxGeometry width="50" height="50" relative="1" as="geometry">
            <mxPoint x="1437.0000000000002" y="1092.125" as="sourcePoint" />
            <mxPoint x="1518" y="1124.375" as="targetPoint" />
          </mxGeometry>
        </mxCell>
        <mxCell id="nXuBNPTSIWch-IA69Y4a-282" value="1" style="text;html=1;align=center;verticalAlign=middle;resizable=0;points=[];autosize=1;strokeColor=none;fillColor=none;" vertex="1" parent="1">
          <mxGeometry x="915" y="770" width="30" height="30" as="geometry" />
        </mxCell>
        <mxCell id="nXuBNPTSIWch-IA69Y4a-283" value="1" style="text;html=1;align=center;verticalAlign=middle;resizable=0;points=[];autosize=1;strokeColor=none;fillColor=none;" vertex="1" parent="1">
          <mxGeometry x="924" y="681" width="30" height="30" as="geometry" />
        </mxCell>
        <mxCell id="nXuBNPTSIWch-IA69Y4a-284" value="*" style="text;html=1;align=center;verticalAlign=middle;resizable=0;points=[];autosize=1;strokeColor=none;fillColor=none;" vertex="1" parent="1">
          <mxGeometry x="1083.5" y="771" width="30" height="30" as="geometry" />
        </mxCell>
        <mxCell id="nXuBNPTSIWch-IA69Y4a-285" value="«Control»&#xa;CRTAtendido" style="swimlane;fontStyle=0;childLayout=stackLayout;horizontal=1;startSize=30;fillColor=none;horizontalStack=0;resizeParent=1;resizeParentMax=0;resizeLast=0;collapsible=1;marginBottom=0;" vertex="1" parent="1">
          <mxGeometry x="1525" y="570" width="119" height="90" as="geometry">
            <mxRectangle x="470" y="300" width="150" height="40" as="alternateBounds" />
          </mxGeometry>
        </mxCell>
        <mxCell id="nXuBNPTSIWch-IA69Y4a-286" value="alterar ( )&#xa;buscar ( )&#xa;salvar ( )&#xa;evadir ( )" style="text;strokeColor=#212121;fillColor=none;align=left;verticalAlign=middle;spacingLeft=4;spacingRight=4;overflow=hidden;points=[[0,0.5],[1,0.5]];portConstraint=eastwest;rotatable=0;" vertex="1" parent="nXuBNPTSIWch-IA69Y4a-285">
          <mxGeometry y="30" width="119" height="60" as="geometry" />
        </mxCell>
        <mxCell id="nXuBNPTSIWch-IA69Y4a-287" value="«Boundary»&lt;br&gt;&lt;b&gt;Frm&lt;/b&gt;" style="html=1;" vertex="1" parent="1">
          <mxGeometry x="1245" y="570" width="130" height="50" as="geometry" />
        </mxCell>
        <mxCell id="nXuBNPTSIWch-IA69Y4a-288" value="" style="endArrow=none;html=1;rounded=0;" edge="1" parent="1" source="nXuBNPTSIWch-IA69Y4a-293" target="nXuBNPTSIWch-IA69Y4a-285">
          <mxGeometry width="50" height="50" relative="1" as="geometry">
            <mxPoint x="1695" y="760" as="sourcePoint" />
            <mxPoint x="1694.04" y="662.01" as="targetPoint" />
          </mxGeometry>
        </mxCell>
        <mxCell id="nXuBNPTSIWch-IA69Y4a-289" value="" style="endArrow=none;html=1;rounded=0;entryX=0;entryY=0.25;entryDx=0;entryDy=0;" edge="1" parent="1" source="nXuBNPTSIWch-IA69Y4a-287" target="nXuBNPTSIWch-IA69Y4a-285">
          <mxGeometry width="50" height="50" relative="1" as="geometry">
            <mxPoint x="1505" y="660" as="sourcePoint" />
            <mxPoint x="1535" y="575" as="targetPoint" />
          </mxGeometry>
        </mxCell>
        <mxCell id="nXuBNPTSIWch-IA69Y4a-290" value="«Entity»&#xa;Paciente" style="swimlane;fontStyle=0;childLayout=stackLayout;horizontal=1;startSize=30;horizontalStack=0;resizeParent=1;resizeParentMax=0;resizeLast=0;collapsible=1;marginBottom=0;strokeColor=#212121;" collapsed="1" vertex="1" parent="1">
          <mxGeometry x="1245" y="777" width="90" height="30" as="geometry">
            <mxRectangle x="560" y="901" width="189" height="330" as="alternateBounds" />
          </mxGeometry>
        </mxCell>
        <mxCell id="nXuBNPTSIWch-IA69Y4a-291" value="- idPac&#xa;- dtNascPac&#xa;- rgPac&#xa;- cpfPac&#xa;- nomePac&#xa;- endPac&#xa;- numPac&#xa;- complementoPac&#xa;- bairroPac&#xa;- estadoPac&#xa;- cidadePac&#xa;- cepPac&#xa;- telPac&#xa;- cartaoSusPac&#xa;- numConvenioPac&#xa;- tipoConvenioPac&#xa;- alergiasPac&#xa;- classifRiscoPac" style="text;strokeColor=#212121;fillColor=none;align=left;verticalAlign=middle;spacingLeft=4;spacingRight=4;overflow=hidden;points=[[0,0.5],[1,0.5]];portConstraint=eastwest;rotatable=0;" vertex="1" parent="nXuBNPTSIWch-IA69Y4a-290">
          <mxGeometry y="30" width="189" height="270" as="geometry" />
        </mxCell>
        <mxCell id="nXuBNPTSIWch-IA69Y4a-292" value="- calcIdade( )" style="text;strokeColor=#212121;fillColor=none;align=left;verticalAlign=middle;spacingLeft=4;spacingRight=4;overflow=hidden;points=[[0,0.5],[1,0.5]];portConstraint=eastwest;rotatable=0;" vertex="1" parent="nXuBNPTSIWch-IA69Y4a-290">
          <mxGeometry y="300" width="189" height="30" as="geometry" />
        </mxCell>
        <mxCell id="nXuBNPTSIWch-IA69Y4a-293" value="«Entity»&#xa;Atendimento" style="swimlane;fontStyle=0;childLayout=stackLayout;horizontal=1;startSize=30;horizontalStack=0;resizeParent=1;resizeParentMax=0;resizeLast=0;collapsible=1;marginBottom=0;strokeColor=#212121;" collapsed="1" vertex="1" parent="1">
          <mxGeometry x="1529.5" y="777" width="110" height="30" as="geometry">
            <mxRectangle x="277" y="847.5" width="189" height="310" as="alternateBounds" />
          </mxGeometry>
        </mxCell>
        <mxCell id="nXuBNPTSIWch-IA69Y4a-294" value="- senhaAtend&#xa;- dtAtend&#xa;- entradaHospAtend&#xa;- saidaHospAtend&#xa;- inicioAtend&#xa;- fimAtend&#xa;- dtAlta" style="text;strokeColor=#212121;fillColor=none;align=left;verticalAlign=middle;spacingLeft=4;spacingRight=4;overflow=hidden;points=[[0,0.5],[1,0.5]];portConstraint=eastwest;rotatable=0;" vertex="1" parent="nXuBNPTSIWch-IA69Y4a-293">
          <mxGeometry y="30" width="189" height="110" as="geometry" />
        </mxCell>
        <mxCell id="nXuBNPTSIWch-IA69Y4a-295" value="+ tempParaAtend ( )&#xa;+ tempAtend ( )&#xa;+ isAltaAtend ( )&#xa;+ filaRecepcao ( )&#xa;+ filaTriagem ( )&#xa;+ filaAtendimento ( )&#xa;+ filaEspecialidade ( )&#xa;+ filaMedicacao ( )&#xa;+ filaExames ( ) &#xa;+ filaInternacao ( )&#xa;+ filaCirurgia ( )" style="text;strokeColor=#212121;fillColor=none;align=left;verticalAlign=middle;spacingLeft=4;spacingRight=4;overflow=hidden;points=[[0,0.5],[1,0.5]];portConstraint=eastwest;rotatable=0;" vertex="1" parent="nXuBNPTSIWch-IA69Y4a-293">
          <mxGeometry y="140" width="189" height="170" as="geometry" />
        </mxCell>
        <mxCell id="nXuBNPTSIWch-IA69Y4a-296" value="«Entity»&#xa;Funcionário" style="swimlane;fontStyle=0;childLayout=stackLayout;horizontal=1;startSize=30;horizontalStack=0;resizeParent=1;resizeParentMax=0;resizeLast=0;collapsible=1;marginBottom=0;strokeColor=#212121;" collapsed="1" vertex="1" parent="1">
          <mxGeometry x="1245" y="690" width="100" height="30" as="geometry">
            <mxRectangle x="10" y="585" width="189" height="280" as="alternateBounds" />
          </mxGeometry>
        </mxCell>
        <mxCell id="nXuBNPTSIWch-IA69Y4a-297" value="- idFunc&#xa;- dtNascFunc&#xa;- rgFunc&#xa;- cpfFunc&#xa;- nomeFunc&#xa;- endFunc&#xa;- numFunc&#xa;- complementoFunc&#xa;- bairroFunc&#xa;- estadoFunc&#xa;- cidadeFunc&#xa;- cepFunc&#xa;- telFunc&#xa;- contratacaoFunc" style="text;strokeColor=#212121;fillColor=none;align=left;verticalAlign=middle;spacingLeft=4;spacingRight=4;overflow=hidden;points=[[0,0.5],[1,0.5]];portConstraint=eastwest;rotatable=0;" vertex="1" parent="nXuBNPTSIWch-IA69Y4a-296">
          <mxGeometry y="30" width="189" height="210" as="geometry" />
        </mxCell>
        <mxCell id="nXuBNPTSIWch-IA69Y4a-298" value="- anosServ( )&#xa;- calcIdade( )" style="text;strokeColor=#212121;fillColor=none;align=left;verticalAlign=middle;spacingLeft=4;spacingRight=4;overflow=hidden;points=[[0,0.5],[1,0.5]];portConstraint=eastwest;rotatable=0;" vertex="1" parent="nXuBNPTSIWch-IA69Y4a-296">
          <mxGeometry y="240" width="189" height="40" as="geometry" />
        </mxCell>
        <mxCell id="nXuBNPTSIWch-IA69Y4a-299" value="" style="endArrow=none;html=1;rounded=0;edgeStyle=orthogonalEdgeStyle;" edge="1" parent="1" source="nXuBNPTSIWch-IA69Y4a-296" target="nXuBNPTSIWch-IA69Y4a-293">
          <mxGeometry width="50" height="50" relative="1" as="geometry">
            <mxPoint x="1684" y="1083.5" as="sourcePoint" />
            <mxPoint x="1734" y="1033.5" as="targetPoint" />
            <Array as="points">
              <mxPoint x="1404" y="705" />
              <mxPoint x="1404" y="792" />
            </Array>
          </mxGeometry>
        </mxCell>
        <mxCell id="nXuBNPTSIWch-IA69Y4a-300" value="" style="endArrow=none;html=1;rounded=0;" edge="1" parent="1" source="nXuBNPTSIWch-IA69Y4a-293" target="nXuBNPTSIWch-IA69Y4a-290">
          <mxGeometry width="50" height="50" relative="1" as="geometry">
            <mxPoint x="1853.0000000000002" y="1092.125" as="sourcePoint" />
            <mxPoint x="1934" y="1124.375" as="targetPoint" />
          </mxGeometry>
        </mxCell>
        <mxCell id="nXuBNPTSIWch-IA69Y4a-301" value="1" style="text;html=1;align=center;verticalAlign=middle;resizable=0;points=[];autosize=1;strokeColor=none;fillColor=none;" vertex="1" parent="1">
          <mxGeometry x="1331" y="770" width="30" height="30" as="geometry" />
        </mxCell>
        <mxCell id="nXuBNPTSIWch-IA69Y4a-302" value="1" style="text;html=1;align=center;verticalAlign=middle;resizable=0;points=[];autosize=1;strokeColor=none;fillColor=none;" vertex="1" parent="1">
          <mxGeometry x="1340" y="681" width="30" height="30" as="geometry" />
        </mxCell>
        <mxCell id="nXuBNPTSIWch-IA69Y4a-303" value="*" style="text;html=1;align=center;verticalAlign=middle;resizable=0;points=[];autosize=1;strokeColor=none;fillColor=none;" vertex="1" parent="1">
          <mxGeometry x="1499.5" y="771" width="30" height="30" as="geometry" />
        </mxCell>
        <mxCell id="nXuBNPTSIWch-IA69Y4a-304" value="«Control»&#xa;CRTEncamAtend" style="swimlane;fontStyle=0;childLayout=stackLayout;horizontal=1;startSize=30;fillColor=none;horizontalStack=0;resizeParent=1;resizeParentMax=0;resizeLast=0;collapsible=1;marginBottom=0;" vertex="1" parent="1">
          <mxGeometry x="1110" y="832" width="119" height="90" as="geometry">
            <mxRectangle x="470" y="300" width="150" height="40" as="alternateBounds" />
          </mxGeometry>
        </mxCell>
        <mxCell id="nXuBNPTSIWch-IA69Y4a-305" value="alterar ( )&#xa;buscar ( )&#xa;salvar ( )&#xa;evadir ( )" style="text;strokeColor=#212121;fillColor=none;align=left;verticalAlign=middle;spacingLeft=4;spacingRight=4;overflow=hidden;points=[[0,0.5],[1,0.5]];portConstraint=eastwest;rotatable=0;" vertex="1" parent="nXuBNPTSIWch-IA69Y4a-304">
          <mxGeometry y="30" width="119" height="60" as="geometry" />
        </mxCell>
        <mxCell id="nXuBNPTSIWch-IA69Y4a-306" value="«Boundary»&lt;br&gt;&lt;b&gt;Frm&lt;/b&gt;" style="html=1;" vertex="1" parent="1">
          <mxGeometry x="830" y="832" width="130" height="50" as="geometry" />
        </mxCell>
        <mxCell id="nXuBNPTSIWch-IA69Y4a-307" value="" style="endArrow=none;html=1;rounded=0;" edge="1" parent="1" source="nXuBNPTSIWch-IA69Y4a-312" target="nXuBNPTSIWch-IA69Y4a-304">
          <mxGeometry width="50" height="50" relative="1" as="geometry">
            <mxPoint x="1280" y="1022" as="sourcePoint" />
            <mxPoint x="1279.04" y="924.01" as="targetPoint" />
          </mxGeometry>
        </mxCell>
        <mxCell id="nXuBNPTSIWch-IA69Y4a-308" value="" style="endArrow=none;html=1;rounded=0;entryX=0;entryY=0.25;entryDx=0;entryDy=0;" edge="1" parent="1" source="nXuBNPTSIWch-IA69Y4a-306" target="nXuBNPTSIWch-IA69Y4a-304">
          <mxGeometry width="50" height="50" relative="1" as="geometry">
            <mxPoint x="1090" y="922" as="sourcePoint" />
            <mxPoint x="1120" y="837" as="targetPoint" />
          </mxGeometry>
        </mxCell>
        <mxCell id="nXuBNPTSIWch-IA69Y4a-309" value="«Entity»&#xa;Paciente" style="swimlane;fontStyle=0;childLayout=stackLayout;horizontal=1;startSize=30;horizontalStack=0;resizeParent=1;resizeParentMax=0;resizeLast=0;collapsible=1;marginBottom=0;strokeColor=#212121;" collapsed="1" vertex="1" parent="1">
          <mxGeometry x="830" y="1039" width="90" height="30" as="geometry">
            <mxRectangle x="560" y="901" width="189" height="330" as="alternateBounds" />
          </mxGeometry>
        </mxCell>
        <mxCell id="nXuBNPTSIWch-IA69Y4a-310" value="- idPac&#xa;- dtNascPac&#xa;- rgPac&#xa;- cpfPac&#xa;- nomePac&#xa;- endPac&#xa;- numPac&#xa;- complementoPac&#xa;- bairroPac&#xa;- estadoPac&#xa;- cidadePac&#xa;- cepPac&#xa;- telPac&#xa;- cartaoSusPac&#xa;- numConvenioPac&#xa;- tipoConvenioPac&#xa;- alergiasPac&#xa;- classifRiscoPac" style="text;strokeColor=#212121;fillColor=none;align=left;verticalAlign=middle;spacingLeft=4;spacingRight=4;overflow=hidden;points=[[0,0.5],[1,0.5]];portConstraint=eastwest;rotatable=0;" vertex="1" parent="nXuBNPTSIWch-IA69Y4a-309">
          <mxGeometry y="30" width="189" height="270" as="geometry" />
        </mxCell>
        <mxCell id="nXuBNPTSIWch-IA69Y4a-311" value="- calcIdade( )" style="text;strokeColor=#212121;fillColor=none;align=left;verticalAlign=middle;spacingLeft=4;spacingRight=4;overflow=hidden;points=[[0,0.5],[1,0.5]];portConstraint=eastwest;rotatable=0;" vertex="1" parent="nXuBNPTSIWch-IA69Y4a-309">
          <mxGeometry y="300" width="189" height="30" as="geometry" />
        </mxCell>
        <mxCell id="nXuBNPTSIWch-IA69Y4a-312" value="«Entity»&#xa;Atendimento" style="swimlane;fontStyle=0;childLayout=stackLayout;horizontal=1;startSize=30;horizontalStack=0;resizeParent=1;resizeParentMax=0;resizeLast=0;collapsible=1;marginBottom=0;strokeColor=#212121;" collapsed="1" vertex="1" parent="1">
          <mxGeometry x="1114.5" y="1039" width="110" height="30" as="geometry">
            <mxRectangle x="277" y="847.5" width="189" height="310" as="alternateBounds" />
          </mxGeometry>
        </mxCell>
        <mxCell id="nXuBNPTSIWch-IA69Y4a-313" value="- senhaAtend&#xa;- dtAtend&#xa;- entradaHospAtend&#xa;- saidaHospAtend&#xa;- inicioAtend&#xa;- fimAtend&#xa;- dtAlta" style="text;strokeColor=#212121;fillColor=none;align=left;verticalAlign=middle;spacingLeft=4;spacingRight=4;overflow=hidden;points=[[0,0.5],[1,0.5]];portConstraint=eastwest;rotatable=0;" vertex="1" parent="nXuBNPTSIWch-IA69Y4a-312">
          <mxGeometry y="30" width="189" height="110" as="geometry" />
        </mxCell>
        <mxCell id="nXuBNPTSIWch-IA69Y4a-314" value="+ tempParaAtend ( )&#xa;+ tempAtend ( )&#xa;+ isAltaAtend ( )&#xa;+ filaRecepcao ( )&#xa;+ filaTriagem ( )&#xa;+ filaAtendimento ( )&#xa;+ filaEspecialidade ( )&#xa;+ filaMedicacao ( )&#xa;+ filaExames ( ) &#xa;+ filaInternacao ( )&#xa;+ filaCirurgia ( )" style="text;strokeColor=#212121;fillColor=none;align=left;verticalAlign=middle;spacingLeft=4;spacingRight=4;overflow=hidden;points=[[0,0.5],[1,0.5]];portConstraint=eastwest;rotatable=0;" vertex="1" parent="nXuBNPTSIWch-IA69Y4a-312">
          <mxGeometry y="140" width="189" height="170" as="geometry" />
        </mxCell>
        <mxCell id="nXuBNPTSIWch-IA69Y4a-315" value="«Entity»&#xa;Funcionário" style="swimlane;fontStyle=0;childLayout=stackLayout;horizontal=1;startSize=30;horizontalStack=0;resizeParent=1;resizeParentMax=0;resizeLast=0;collapsible=1;marginBottom=0;strokeColor=#212121;" collapsed="1" vertex="1" parent="1">
          <mxGeometry x="830" y="952" width="100" height="30" as="geometry">
            <mxRectangle x="10" y="585" width="189" height="280" as="alternateBounds" />
          </mxGeometry>
        </mxCell>
        <mxCell id="nXuBNPTSIWch-IA69Y4a-316" value="- idFunc&#xa;- dtNascFunc&#xa;- rgFunc&#xa;- cpfFunc&#xa;- nomeFunc&#xa;- endFunc&#xa;- numFunc&#xa;- complementoFunc&#xa;- bairroFunc&#xa;- estadoFunc&#xa;- cidadeFunc&#xa;- cepFunc&#xa;- telFunc&#xa;- contratacaoFunc" style="text;strokeColor=#212121;fillColor=none;align=left;verticalAlign=middle;spacingLeft=4;spacingRight=4;overflow=hidden;points=[[0,0.5],[1,0.5]];portConstraint=eastwest;rotatable=0;" vertex="1" parent="nXuBNPTSIWch-IA69Y4a-315">
          <mxGeometry y="30" width="189" height="210" as="geometry" />
        </mxCell>
        <mxCell id="nXuBNPTSIWch-IA69Y4a-317" value="- anosServ( )&#xa;- calcIdade( )" style="text;strokeColor=#212121;fillColor=none;align=left;verticalAlign=middle;spacingLeft=4;spacingRight=4;overflow=hidden;points=[[0,0.5],[1,0.5]];portConstraint=eastwest;rotatable=0;" vertex="1" parent="nXuBNPTSIWch-IA69Y4a-315">
          <mxGeometry y="240" width="189" height="40" as="geometry" />
        </mxCell>
        <mxCell id="nXuBNPTSIWch-IA69Y4a-318" value="" style="endArrow=none;html=1;rounded=0;edgeStyle=orthogonalEdgeStyle;" edge="1" parent="1" source="nXuBNPTSIWch-IA69Y4a-315" target="nXuBNPTSIWch-IA69Y4a-312">
          <mxGeometry width="50" height="50" relative="1" as="geometry">
            <mxPoint x="1269" y="1345.5" as="sourcePoint" />
            <mxPoint x="1319" y="1295.5" as="targetPoint" />
            <Array as="points">
              <mxPoint x="989" y="967" />
              <mxPoint x="989" y="1054" />
            </Array>
          </mxGeometry>
        </mxCell>
        <mxCell id="nXuBNPTSIWch-IA69Y4a-319" value="" style="endArrow=none;html=1;rounded=0;" edge="1" parent="1" source="nXuBNPTSIWch-IA69Y4a-312" target="nXuBNPTSIWch-IA69Y4a-309">
          <mxGeometry width="50" height="50" relative="1" as="geometry">
            <mxPoint x="1438.0000000000002" y="1354.125" as="sourcePoint" />
            <mxPoint x="1519" y="1386.375" as="targetPoint" />
          </mxGeometry>
        </mxCell>
        <mxCell id="nXuBNPTSIWch-IA69Y4a-320" value="1" style="text;html=1;align=center;verticalAlign=middle;resizable=0;points=[];autosize=1;strokeColor=none;fillColor=none;" vertex="1" parent="1">
          <mxGeometry x="916" y="1032" width="30" height="30" as="geometry" />
        </mxCell>
        <mxCell id="nXuBNPTSIWch-IA69Y4a-321" value="1" style="text;html=1;align=center;verticalAlign=middle;resizable=0;points=[];autosize=1;strokeColor=none;fillColor=none;" vertex="1" parent="1">
          <mxGeometry x="925" y="943" width="30" height="30" as="geometry" />
        </mxCell>
        <mxCell id="nXuBNPTSIWch-IA69Y4a-322" value="*" style="text;html=1;align=center;verticalAlign=middle;resizable=0;points=[];autosize=1;strokeColor=none;fillColor=none;" vertex="1" parent="1">
          <mxGeometry x="1084.5" y="1033" width="30" height="30" as="geometry" />
        </mxCell>
        <mxCell id="nXuBNPTSIWch-IA69Y4a-323" value="«Control»&#xa;CRTEncammedic" style="swimlane;fontStyle=0;childLayout=stackLayout;horizontal=1;startSize=30;fillColor=none;horizontalStack=0;resizeParent=1;resizeParentMax=0;resizeLast=0;collapsible=1;marginBottom=0;" vertex="1" parent="1">
          <mxGeometry x="1526" y="832" width="119" height="90" as="geometry">
            <mxRectangle x="470" y="300" width="150" height="40" as="alternateBounds" />
          </mxGeometry>
        </mxCell>
        <mxCell id="nXuBNPTSIWch-IA69Y4a-324" value="alterar ( )&#xa;buscar ( )&#xa;salvar ( )&#xa;evadir ( )" style="text;strokeColor=#212121;fillColor=none;align=left;verticalAlign=middle;spacingLeft=4;spacingRight=4;overflow=hidden;points=[[0,0.5],[1,0.5]];portConstraint=eastwest;rotatable=0;" vertex="1" parent="nXuBNPTSIWch-IA69Y4a-323">
          <mxGeometry y="30" width="119" height="60" as="geometry" />
        </mxCell>
        <mxCell id="nXuBNPTSIWch-IA69Y4a-325" value="«Boundary»&lt;br&gt;&lt;b&gt;Frm&lt;/b&gt;" style="html=1;" vertex="1" parent="1">
          <mxGeometry x="1246" y="832" width="130" height="50" as="geometry" />
        </mxCell>
        <mxCell id="nXuBNPTSIWch-IA69Y4a-326" value="" style="endArrow=none;html=1;rounded=0;" edge="1" parent="1" source="nXuBNPTSIWch-IA69Y4a-331" target="nXuBNPTSIWch-IA69Y4a-323">
          <mxGeometry width="50" height="50" relative="1" as="geometry">
            <mxPoint x="1696" y="1022" as="sourcePoint" />
            <mxPoint x="1695.04" y="924.01" as="targetPoint" />
          </mxGeometry>
        </mxCell>
        <mxCell id="nXuBNPTSIWch-IA69Y4a-327" value="" style="endArrow=none;html=1;rounded=0;entryX=0;entryY=0.25;entryDx=0;entryDy=0;" edge="1" parent="1" source="nXuBNPTSIWch-IA69Y4a-325" target="nXuBNPTSIWch-IA69Y4a-323">
          <mxGeometry width="50" height="50" relative="1" as="geometry">
            <mxPoint x="1506" y="922" as="sourcePoint" />
            <mxPoint x="1536" y="837" as="targetPoint" />
          </mxGeometry>
        </mxCell>
        <mxCell id="nXuBNPTSIWch-IA69Y4a-328" value="«Entity»&#xa;Paciente" style="swimlane;fontStyle=0;childLayout=stackLayout;horizontal=1;startSize=30;horizontalStack=0;resizeParent=1;resizeParentMax=0;resizeLast=0;collapsible=1;marginBottom=0;strokeColor=#212121;" collapsed="1" vertex="1" parent="1">
          <mxGeometry x="1246" y="1039" width="90" height="30" as="geometry">
            <mxRectangle x="560" y="901" width="189" height="330" as="alternateBounds" />
          </mxGeometry>
        </mxCell>
        <mxCell id="nXuBNPTSIWch-IA69Y4a-329" value="- idPac&#xa;- dtNascPac&#xa;- rgPac&#xa;- cpfPac&#xa;- nomePac&#xa;- endPac&#xa;- numPac&#xa;- complementoPac&#xa;- bairroPac&#xa;- estadoPac&#xa;- cidadePac&#xa;- cepPac&#xa;- telPac&#xa;- cartaoSusPac&#xa;- numConvenioPac&#xa;- tipoConvenioPac&#xa;- alergiasPac&#xa;- classifRiscoPac" style="text;strokeColor=#212121;fillColor=none;align=left;verticalAlign=middle;spacingLeft=4;spacingRight=4;overflow=hidden;points=[[0,0.5],[1,0.5]];portConstraint=eastwest;rotatable=0;" vertex="1" parent="nXuBNPTSIWch-IA69Y4a-328">
          <mxGeometry y="30" width="189" height="270" as="geometry" />
        </mxCell>
        <mxCell id="nXuBNPTSIWch-IA69Y4a-330" value="- calcIdade( )" style="text;strokeColor=#212121;fillColor=none;align=left;verticalAlign=middle;spacingLeft=4;spacingRight=4;overflow=hidden;points=[[0,0.5],[1,0.5]];portConstraint=eastwest;rotatable=0;" vertex="1" parent="nXuBNPTSIWch-IA69Y4a-328">
          <mxGeometry y="300" width="189" height="30" as="geometry" />
        </mxCell>
        <mxCell id="nXuBNPTSIWch-IA69Y4a-331" value="«Entity»&#xa;Atendimento" style="swimlane;fontStyle=0;childLayout=stackLayout;horizontal=1;startSize=30;horizontalStack=0;resizeParent=1;resizeParentMax=0;resizeLast=0;collapsible=1;marginBottom=0;strokeColor=#212121;" collapsed="1" vertex="1" parent="1">
          <mxGeometry x="1530.5" y="1039" width="110" height="30" as="geometry">
            <mxRectangle x="277" y="847.5" width="189" height="310" as="alternateBounds" />
          </mxGeometry>
        </mxCell>
        <mxCell id="nXuBNPTSIWch-IA69Y4a-332" value="- senhaAtend&#xa;- dtAtend&#xa;- entradaHospAtend&#xa;- saidaHospAtend&#xa;- inicioAtend&#xa;- fimAtend&#xa;- dtAlta" style="text;strokeColor=#212121;fillColor=none;align=left;verticalAlign=middle;spacingLeft=4;spacingRight=4;overflow=hidden;points=[[0,0.5],[1,0.5]];portConstraint=eastwest;rotatable=0;" vertex="1" parent="nXuBNPTSIWch-IA69Y4a-331">
          <mxGeometry y="30" width="189" height="110" as="geometry" />
        </mxCell>
        <mxCell id="nXuBNPTSIWch-IA69Y4a-333" value="+ tempParaAtend ( )&#xa;+ tempAtend ( )&#xa;+ isAltaAtend ( )&#xa;+ filaRecepcao ( )&#xa;+ filaTriagem ( )&#xa;+ filaAtendimento ( )&#xa;+ filaEspecialidade ( )&#xa;+ filaMedicacao ( )&#xa;+ filaExames ( ) &#xa;+ filaInternacao ( )&#xa;+ filaCirurgia ( )" style="text;strokeColor=#212121;fillColor=none;align=left;verticalAlign=middle;spacingLeft=4;spacingRight=4;overflow=hidden;points=[[0,0.5],[1,0.5]];portConstraint=eastwest;rotatable=0;" vertex="1" parent="nXuBNPTSIWch-IA69Y4a-331">
          <mxGeometry y="140" width="189" height="170" as="geometry" />
        </mxCell>
        <mxCell id="nXuBNPTSIWch-IA69Y4a-334" value="«Entity»&#xa;Funcionário" style="swimlane;fontStyle=0;childLayout=stackLayout;horizontal=1;startSize=30;horizontalStack=0;resizeParent=1;resizeParentMax=0;resizeLast=0;collapsible=1;marginBottom=0;strokeColor=#212121;" collapsed="1" vertex="1" parent="1">
          <mxGeometry x="1246" y="952" width="100" height="30" as="geometry">
            <mxRectangle x="10" y="585" width="189" height="280" as="alternateBounds" />
          </mxGeometry>
        </mxCell>
        <mxCell id="nXuBNPTSIWch-IA69Y4a-335" value="- idFunc&#xa;- dtNascFunc&#xa;- rgFunc&#xa;- cpfFunc&#xa;- nomeFunc&#xa;- endFunc&#xa;- numFunc&#xa;- complementoFunc&#xa;- bairroFunc&#xa;- estadoFunc&#xa;- cidadeFunc&#xa;- cepFunc&#xa;- telFunc&#xa;- contratacaoFunc" style="text;strokeColor=#212121;fillColor=none;align=left;verticalAlign=middle;spacingLeft=4;spacingRight=4;overflow=hidden;points=[[0,0.5],[1,0.5]];portConstraint=eastwest;rotatable=0;" vertex="1" parent="nXuBNPTSIWch-IA69Y4a-334">
          <mxGeometry y="30" width="189" height="210" as="geometry" />
        </mxCell>
        <mxCell id="nXuBNPTSIWch-IA69Y4a-336" value="- anosServ( )&#xa;- calcIdade( )" style="text;strokeColor=#212121;fillColor=none;align=left;verticalAlign=middle;spacingLeft=4;spacingRight=4;overflow=hidden;points=[[0,0.5],[1,0.5]];portConstraint=eastwest;rotatable=0;" vertex="1" parent="nXuBNPTSIWch-IA69Y4a-334">
          <mxGeometry y="240" width="189" height="40" as="geometry" />
        </mxCell>
        <mxCell id="nXuBNPTSIWch-IA69Y4a-337" value="" style="endArrow=none;html=1;rounded=0;edgeStyle=orthogonalEdgeStyle;" edge="1" parent="1" source="nXuBNPTSIWch-IA69Y4a-334" target="nXuBNPTSIWch-IA69Y4a-331">
          <mxGeometry width="50" height="50" relative="1" as="geometry">
            <mxPoint x="1685" y="1345.5" as="sourcePoint" />
            <mxPoint x="1735" y="1295.5" as="targetPoint" />
            <Array as="points">
              <mxPoint x="1405" y="967" />
              <mxPoint x="1405" y="1054" />
            </Array>
          </mxGeometry>
        </mxCell>
        <mxCell id="nXuBNPTSIWch-IA69Y4a-338" value="" style="endArrow=none;html=1;rounded=0;" edge="1" parent="1" source="nXuBNPTSIWch-IA69Y4a-331" target="nXuBNPTSIWch-IA69Y4a-328">
          <mxGeometry width="50" height="50" relative="1" as="geometry">
            <mxPoint x="1854.0000000000002" y="1354.125" as="sourcePoint" />
            <mxPoint x="1935" y="1386.375" as="targetPoint" />
          </mxGeometry>
        </mxCell>
        <mxCell id="nXuBNPTSIWch-IA69Y4a-339" value="1" style="text;html=1;align=center;verticalAlign=middle;resizable=0;points=[];autosize=1;strokeColor=none;fillColor=none;" vertex="1" parent="1">
          <mxGeometry x="1332" y="1032" width="30" height="30" as="geometry" />
        </mxCell>
        <mxCell id="nXuBNPTSIWch-IA69Y4a-340" value="1" style="text;html=1;align=center;verticalAlign=middle;resizable=0;points=[];autosize=1;strokeColor=none;fillColor=none;" vertex="1" parent="1">
          <mxGeometry x="1341" y="943" width="30" height="30" as="geometry" />
        </mxCell>
        <mxCell id="nXuBNPTSIWch-IA69Y4a-341" value="*" style="text;html=1;align=center;verticalAlign=middle;resizable=0;points=[];autosize=1;strokeColor=none;fillColor=none;" vertex="1" parent="1">
          <mxGeometry x="1500.5" y="1033" width="30" height="30" as="geometry" />
        </mxCell>
        <mxCell id="nXuBNPTSIWch-IA69Y4a-342" value="«Control»&#xa;CRTEncamExame" style="swimlane;fontStyle=0;childLayout=stackLayout;horizontal=1;startSize=30;fillColor=none;horizontalStack=0;resizeParent=1;resizeParentMax=0;resizeLast=0;collapsible=1;marginBottom=0;" vertex="1" parent="1">
          <mxGeometry x="290" y="1190" width="119" height="90" as="geometry">
            <mxRectangle x="470" y="300" width="150" height="40" as="alternateBounds" />
          </mxGeometry>
        </mxCell>
        <mxCell id="nXuBNPTSIWch-IA69Y4a-343" value="alterar ( )&#xa;buscar ( )&#xa;salvar ( )&#xa;evadir ( )" style="text;strokeColor=#212121;fillColor=none;align=left;verticalAlign=middle;spacingLeft=4;spacingRight=4;overflow=hidden;points=[[0,0.5],[1,0.5]];portConstraint=eastwest;rotatable=0;" vertex="1" parent="nXuBNPTSIWch-IA69Y4a-342">
          <mxGeometry y="30" width="119" height="60" as="geometry" />
        </mxCell>
        <mxCell id="nXuBNPTSIWch-IA69Y4a-344" value="«Boundary»&lt;br&gt;&lt;b&gt;Frm&lt;/b&gt;" style="html=1;" vertex="1" parent="1">
          <mxGeometry x="10" y="1190" width="130" height="50" as="geometry" />
        </mxCell>
        <mxCell id="nXuBNPTSIWch-IA69Y4a-345" value="" style="endArrow=none;html=1;rounded=0;" edge="1" parent="1" source="nXuBNPTSIWch-IA69Y4a-350" target="nXuBNPTSIWch-IA69Y4a-342">
          <mxGeometry width="50" height="50" relative="1" as="geometry">
            <mxPoint x="460" y="1380" as="sourcePoint" />
            <mxPoint x="459.03999999999996" y="1282.01" as="targetPoint" />
          </mxGeometry>
        </mxCell>
        <mxCell id="nXuBNPTSIWch-IA69Y4a-346" value="" style="endArrow=none;html=1;rounded=0;entryX=0;entryY=0.25;entryDx=0;entryDy=0;" edge="1" parent="1" source="nXuBNPTSIWch-IA69Y4a-344" target="nXuBNPTSIWch-IA69Y4a-342">
          <mxGeometry width="50" height="50" relative="1" as="geometry">
            <mxPoint x="270" y="1280" as="sourcePoint" />
            <mxPoint x="300" y="1195" as="targetPoint" />
          </mxGeometry>
        </mxCell>
        <mxCell id="nXuBNPTSIWch-IA69Y4a-347" value="«Entity»&#xa;Paciente" style="swimlane;fontStyle=0;childLayout=stackLayout;horizontal=1;startSize=30;horizontalStack=0;resizeParent=1;resizeParentMax=0;resizeLast=0;collapsible=1;marginBottom=0;strokeColor=#212121;" collapsed="1" vertex="1" parent="1">
          <mxGeometry x="10" y="1397" width="90" height="30" as="geometry">
            <mxRectangle x="560" y="901" width="189" height="330" as="alternateBounds" />
          </mxGeometry>
        </mxCell>
        <mxCell id="nXuBNPTSIWch-IA69Y4a-348" value="- idPac&#xa;- dtNascPac&#xa;- rgPac&#xa;- cpfPac&#xa;- nomePac&#xa;- endPac&#xa;- numPac&#xa;- complementoPac&#xa;- bairroPac&#xa;- estadoPac&#xa;- cidadePac&#xa;- cepPac&#xa;- telPac&#xa;- cartaoSusPac&#xa;- numConvenioPac&#xa;- tipoConvenioPac&#xa;- alergiasPac&#xa;- classifRiscoPac" style="text;strokeColor=#212121;fillColor=none;align=left;verticalAlign=middle;spacingLeft=4;spacingRight=4;overflow=hidden;points=[[0,0.5],[1,0.5]];portConstraint=eastwest;rotatable=0;" vertex="1" parent="nXuBNPTSIWch-IA69Y4a-347">
          <mxGeometry y="30" width="189" height="270" as="geometry" />
        </mxCell>
        <mxCell id="nXuBNPTSIWch-IA69Y4a-349" value="- calcIdade( )" style="text;strokeColor=#212121;fillColor=none;align=left;verticalAlign=middle;spacingLeft=4;spacingRight=4;overflow=hidden;points=[[0,0.5],[1,0.5]];portConstraint=eastwest;rotatable=0;" vertex="1" parent="nXuBNPTSIWch-IA69Y4a-347">
          <mxGeometry y="300" width="189" height="30" as="geometry" />
        </mxCell>
        <mxCell id="nXuBNPTSIWch-IA69Y4a-350" value="«Entity»&#xa;Atendimento" style="swimlane;fontStyle=0;childLayout=stackLayout;horizontal=1;startSize=30;horizontalStack=0;resizeParent=1;resizeParentMax=0;resizeLast=0;collapsible=1;marginBottom=0;strokeColor=#212121;" collapsed="1" vertex="1" parent="1">
          <mxGeometry x="294.5" y="1397" width="110" height="30" as="geometry">
            <mxRectangle x="277" y="847.5" width="189" height="310" as="alternateBounds" />
          </mxGeometry>
        </mxCell>
        <mxCell id="nXuBNPTSIWch-IA69Y4a-351" value="- senhaAtend&#xa;- dtAtend&#xa;- entradaHospAtend&#xa;- saidaHospAtend&#xa;- inicioAtend&#xa;- fimAtend&#xa;- dtAlta" style="text;strokeColor=#212121;fillColor=none;align=left;verticalAlign=middle;spacingLeft=4;spacingRight=4;overflow=hidden;points=[[0,0.5],[1,0.5]];portConstraint=eastwest;rotatable=0;" vertex="1" parent="nXuBNPTSIWch-IA69Y4a-350">
          <mxGeometry y="30" width="189" height="110" as="geometry" />
        </mxCell>
        <mxCell id="nXuBNPTSIWch-IA69Y4a-352" value="+ tempParaAtend ( )&#xa;+ tempAtend ( )&#xa;+ isAltaAtend ( )&#xa;+ filaRecepcao ( )&#xa;+ filaTriagem ( )&#xa;+ filaAtendimento ( )&#xa;+ filaEspecialidade ( )&#xa;+ filaMedicacao ( )&#xa;+ filaExames ( ) &#xa;+ filaInternacao ( )&#xa;+ filaCirurgia ( )" style="text;strokeColor=#212121;fillColor=none;align=left;verticalAlign=middle;spacingLeft=4;spacingRight=4;overflow=hidden;points=[[0,0.5],[1,0.5]];portConstraint=eastwest;rotatable=0;" vertex="1" parent="nXuBNPTSIWch-IA69Y4a-350">
          <mxGeometry y="140" width="189" height="170" as="geometry" />
        </mxCell>
        <mxCell id="nXuBNPTSIWch-IA69Y4a-353" value="«Entity»&#xa;Funcionário" style="swimlane;fontStyle=0;childLayout=stackLayout;horizontal=1;startSize=30;horizontalStack=0;resizeParent=1;resizeParentMax=0;resizeLast=0;collapsible=1;marginBottom=0;strokeColor=#212121;" collapsed="1" vertex="1" parent="1">
          <mxGeometry x="10" y="1310" width="100" height="30" as="geometry">
            <mxRectangle x="10" y="585" width="189" height="280" as="alternateBounds" />
          </mxGeometry>
        </mxCell>
        <mxCell id="nXuBNPTSIWch-IA69Y4a-354" value="- idFunc&#xa;- dtNascFunc&#xa;- rgFunc&#xa;- cpfFunc&#xa;- nomeFunc&#xa;- endFunc&#xa;- numFunc&#xa;- complementoFunc&#xa;- bairroFunc&#xa;- estadoFunc&#xa;- cidadeFunc&#xa;- cepFunc&#xa;- telFunc&#xa;- contratacaoFunc" style="text;strokeColor=#212121;fillColor=none;align=left;verticalAlign=middle;spacingLeft=4;spacingRight=4;overflow=hidden;points=[[0,0.5],[1,0.5]];portConstraint=eastwest;rotatable=0;" vertex="1" parent="nXuBNPTSIWch-IA69Y4a-353">
          <mxGeometry y="30" width="189" height="210" as="geometry" />
        </mxCell>
        <mxCell id="nXuBNPTSIWch-IA69Y4a-355" value="- anosServ( )&#xa;- calcIdade( )" style="text;strokeColor=#212121;fillColor=none;align=left;verticalAlign=middle;spacingLeft=4;spacingRight=4;overflow=hidden;points=[[0,0.5],[1,0.5]];portConstraint=eastwest;rotatable=0;" vertex="1" parent="nXuBNPTSIWch-IA69Y4a-353">
          <mxGeometry y="240" width="189" height="40" as="geometry" />
        </mxCell>
        <mxCell id="nXuBNPTSIWch-IA69Y4a-356" value="" style="endArrow=none;html=1;rounded=0;edgeStyle=orthogonalEdgeStyle;" edge="1" parent="1" source="nXuBNPTSIWch-IA69Y4a-353" target="nXuBNPTSIWch-IA69Y4a-350">
          <mxGeometry width="50" height="50" relative="1" as="geometry">
            <mxPoint x="449" y="1703.5" as="sourcePoint" />
            <mxPoint x="499" y="1653.5" as="targetPoint" />
            <Array as="points">
              <mxPoint x="169" y="1325" />
              <mxPoint x="169" y="1412" />
            </Array>
          </mxGeometry>
        </mxCell>
        <mxCell id="nXuBNPTSIWch-IA69Y4a-357" value="" style="endArrow=none;html=1;rounded=0;" edge="1" parent="1" source="nXuBNPTSIWch-IA69Y4a-350" target="nXuBNPTSIWch-IA69Y4a-347">
          <mxGeometry width="50" height="50" relative="1" as="geometry">
            <mxPoint x="618.0000000000002" y="1712.125" as="sourcePoint" />
            <mxPoint x="699" y="1744.375" as="targetPoint" />
          </mxGeometry>
        </mxCell>
        <mxCell id="nXuBNPTSIWch-IA69Y4a-358" value="1" style="text;html=1;align=center;verticalAlign=middle;resizable=0;points=[];autosize=1;strokeColor=none;fillColor=none;" vertex="1" parent="1">
          <mxGeometry x="96" y="1390" width="30" height="30" as="geometry" />
        </mxCell>
        <mxCell id="nXuBNPTSIWch-IA69Y4a-359" value="1" style="text;html=1;align=center;verticalAlign=middle;resizable=0;points=[];autosize=1;strokeColor=none;fillColor=none;" vertex="1" parent="1">
          <mxGeometry x="105" y="1301" width="30" height="30" as="geometry" />
        </mxCell>
        <mxCell id="nXuBNPTSIWch-IA69Y4a-360" value="*" style="text;html=1;align=center;verticalAlign=middle;resizable=0;points=[];autosize=1;strokeColor=none;fillColor=none;" vertex="1" parent="1">
          <mxGeometry x="264.5" y="1391" width="30" height="30" as="geometry" />
        </mxCell>
        <mxCell id="nXuBNPTSIWch-IA69Y4a-361" value="«Control»&#xa;CRTEncamIntern" style="swimlane;fontStyle=0;childLayout=stackLayout;horizontal=1;startSize=30;fillColor=none;horizontalStack=0;resizeParent=1;resizeParentMax=0;resizeLast=0;collapsible=1;marginBottom=0;" vertex="1" parent="1">
          <mxGeometry x="706" y="1190" width="119" height="90" as="geometry">
            <mxRectangle x="470" y="300" width="150" height="40" as="alternateBounds" />
          </mxGeometry>
        </mxCell>
        <mxCell id="nXuBNPTSIWch-IA69Y4a-362" value="alterar ( )&#xa;buscar ( )&#xa;salvar ( )&#xa;evadir ( )" style="text;strokeColor=#212121;fillColor=none;align=left;verticalAlign=middle;spacingLeft=4;spacingRight=4;overflow=hidden;points=[[0,0.5],[1,0.5]];portConstraint=eastwest;rotatable=0;" vertex="1" parent="nXuBNPTSIWch-IA69Y4a-361">
          <mxGeometry y="30" width="119" height="60" as="geometry" />
        </mxCell>
        <mxCell id="nXuBNPTSIWch-IA69Y4a-363" value="«Boundary»&lt;br&gt;&lt;b&gt;Frm&lt;/b&gt;" style="html=1;" vertex="1" parent="1">
          <mxGeometry x="426" y="1190" width="130" height="50" as="geometry" />
        </mxCell>
        <mxCell id="nXuBNPTSIWch-IA69Y4a-364" value="" style="endArrow=none;html=1;rounded=0;" edge="1" parent="1" source="nXuBNPTSIWch-IA69Y4a-369" target="nXuBNPTSIWch-IA69Y4a-361">
          <mxGeometry width="50" height="50" relative="1" as="geometry">
            <mxPoint x="876" y="1380" as="sourcePoint" />
            <mxPoint x="875.04" y="1282.01" as="targetPoint" />
          </mxGeometry>
        </mxCell>
        <mxCell id="nXuBNPTSIWch-IA69Y4a-365" value="" style="endArrow=none;html=1;rounded=0;entryX=0;entryY=0.25;entryDx=0;entryDy=0;" edge="1" parent="1" source="nXuBNPTSIWch-IA69Y4a-363" target="nXuBNPTSIWch-IA69Y4a-361">
          <mxGeometry width="50" height="50" relative="1" as="geometry">
            <mxPoint x="686" y="1280" as="sourcePoint" />
            <mxPoint x="716" y="1195" as="targetPoint" />
          </mxGeometry>
        </mxCell>
        <mxCell id="nXuBNPTSIWch-IA69Y4a-366" value="«Entity»&#xa;Paciente" style="swimlane;fontStyle=0;childLayout=stackLayout;horizontal=1;startSize=30;horizontalStack=0;resizeParent=1;resizeParentMax=0;resizeLast=0;collapsible=1;marginBottom=0;strokeColor=#212121;" collapsed="1" vertex="1" parent="1">
          <mxGeometry x="426" y="1397" width="90" height="30" as="geometry">
            <mxRectangle x="560" y="901" width="189" height="330" as="alternateBounds" />
          </mxGeometry>
        </mxCell>
        <mxCell id="nXuBNPTSIWch-IA69Y4a-367" value="- idPac&#xa;- dtNascPac&#xa;- rgPac&#xa;- cpfPac&#xa;- nomePac&#xa;- endPac&#xa;- numPac&#xa;- complementoPac&#xa;- bairroPac&#xa;- estadoPac&#xa;- cidadePac&#xa;- cepPac&#xa;- telPac&#xa;- cartaoSusPac&#xa;- numConvenioPac&#xa;- tipoConvenioPac&#xa;- alergiasPac&#xa;- classifRiscoPac" style="text;strokeColor=#212121;fillColor=none;align=left;verticalAlign=middle;spacingLeft=4;spacingRight=4;overflow=hidden;points=[[0,0.5],[1,0.5]];portConstraint=eastwest;rotatable=0;" vertex="1" parent="nXuBNPTSIWch-IA69Y4a-366">
          <mxGeometry y="30" width="189" height="270" as="geometry" />
        </mxCell>
        <mxCell id="nXuBNPTSIWch-IA69Y4a-368" value="- calcIdade( )" style="text;strokeColor=#212121;fillColor=none;align=left;verticalAlign=middle;spacingLeft=4;spacingRight=4;overflow=hidden;points=[[0,0.5],[1,0.5]];portConstraint=eastwest;rotatable=0;" vertex="1" parent="nXuBNPTSIWch-IA69Y4a-366">
          <mxGeometry y="300" width="189" height="30" as="geometry" />
        </mxCell>
        <mxCell id="nXuBNPTSIWch-IA69Y4a-369" value="«Entity»&#xa;Atendimento" style="swimlane;fontStyle=0;childLayout=stackLayout;horizontal=1;startSize=30;horizontalStack=0;resizeParent=1;resizeParentMax=0;resizeLast=0;collapsible=1;marginBottom=0;strokeColor=#212121;" collapsed="1" vertex="1" parent="1">
          <mxGeometry x="710.5" y="1397" width="110" height="30" as="geometry">
            <mxRectangle x="277" y="847.5" width="189" height="310" as="alternateBounds" />
          </mxGeometry>
        </mxCell>
        <mxCell id="nXuBNPTSIWch-IA69Y4a-370" value="- senhaAtend&#xa;- dtAtend&#xa;- entradaHospAtend&#xa;- saidaHospAtend&#xa;- inicioAtend&#xa;- fimAtend&#xa;- dtAlta" style="text;strokeColor=#212121;fillColor=none;align=left;verticalAlign=middle;spacingLeft=4;spacingRight=4;overflow=hidden;points=[[0,0.5],[1,0.5]];portConstraint=eastwest;rotatable=0;" vertex="1" parent="nXuBNPTSIWch-IA69Y4a-369">
          <mxGeometry y="30" width="189" height="110" as="geometry" />
        </mxCell>
        <mxCell id="nXuBNPTSIWch-IA69Y4a-371" value="+ tempParaAtend ( )&#xa;+ tempAtend ( )&#xa;+ isAltaAtend ( )&#xa;+ filaRecepcao ( )&#xa;+ filaTriagem ( )&#xa;+ filaAtendimento ( )&#xa;+ filaEspecialidade ( )&#xa;+ filaMedicacao ( )&#xa;+ filaExames ( ) &#xa;+ filaInternacao ( )&#xa;+ filaCirurgia ( )" style="text;strokeColor=#212121;fillColor=none;align=left;verticalAlign=middle;spacingLeft=4;spacingRight=4;overflow=hidden;points=[[0,0.5],[1,0.5]];portConstraint=eastwest;rotatable=0;" vertex="1" parent="nXuBNPTSIWch-IA69Y4a-369">
          <mxGeometry y="140" width="189" height="170" as="geometry" />
        </mxCell>
        <mxCell id="nXuBNPTSIWch-IA69Y4a-372" value="«Entity»&#xa;Funcionário" style="swimlane;fontStyle=0;childLayout=stackLayout;horizontal=1;startSize=30;horizontalStack=0;resizeParent=1;resizeParentMax=0;resizeLast=0;collapsible=1;marginBottom=0;strokeColor=#212121;" collapsed="1" vertex="1" parent="1">
          <mxGeometry x="426" y="1310" width="100" height="30" as="geometry">
            <mxRectangle x="10" y="585" width="189" height="280" as="alternateBounds" />
          </mxGeometry>
        </mxCell>
        <mxCell id="nXuBNPTSIWch-IA69Y4a-373" value="- idFunc&#xa;- dtNascFunc&#xa;- rgFunc&#xa;- cpfFunc&#xa;- nomeFunc&#xa;- endFunc&#xa;- numFunc&#xa;- complementoFunc&#xa;- bairroFunc&#xa;- estadoFunc&#xa;- cidadeFunc&#xa;- cepFunc&#xa;- telFunc&#xa;- contratacaoFunc" style="text;strokeColor=#212121;fillColor=none;align=left;verticalAlign=middle;spacingLeft=4;spacingRight=4;overflow=hidden;points=[[0,0.5],[1,0.5]];portConstraint=eastwest;rotatable=0;" vertex="1" parent="nXuBNPTSIWch-IA69Y4a-372">
          <mxGeometry y="30" width="189" height="210" as="geometry" />
        </mxCell>
        <mxCell id="nXuBNPTSIWch-IA69Y4a-374" value="- anosServ( )&#xa;- calcIdade( )" style="text;strokeColor=#212121;fillColor=none;align=left;verticalAlign=middle;spacingLeft=4;spacingRight=4;overflow=hidden;points=[[0,0.5],[1,0.5]];portConstraint=eastwest;rotatable=0;" vertex="1" parent="nXuBNPTSIWch-IA69Y4a-372">
          <mxGeometry y="240" width="189" height="40" as="geometry" />
        </mxCell>
        <mxCell id="nXuBNPTSIWch-IA69Y4a-375" value="" style="endArrow=none;html=1;rounded=0;edgeStyle=orthogonalEdgeStyle;" edge="1" parent="1" source="nXuBNPTSIWch-IA69Y4a-372" target="nXuBNPTSIWch-IA69Y4a-369">
          <mxGeometry width="50" height="50" relative="1" as="geometry">
            <mxPoint x="865" y="1703.5" as="sourcePoint" />
            <mxPoint x="915" y="1653.5" as="targetPoint" />
            <Array as="points">
              <mxPoint x="585" y="1325" />
              <mxPoint x="585" y="1412" />
            </Array>
          </mxGeometry>
        </mxCell>
        <mxCell id="nXuBNPTSIWch-IA69Y4a-376" value="" style="endArrow=none;html=1;rounded=0;" edge="1" parent="1" source="nXuBNPTSIWch-IA69Y4a-369" target="nXuBNPTSIWch-IA69Y4a-366">
          <mxGeometry width="50" height="50" relative="1" as="geometry">
            <mxPoint x="1034.0000000000002" y="1712.125" as="sourcePoint" />
            <mxPoint x="1115" y="1744.375" as="targetPoint" />
          </mxGeometry>
        </mxCell>
        <mxCell id="nXuBNPTSIWch-IA69Y4a-377" value="1" style="text;html=1;align=center;verticalAlign=middle;resizable=0;points=[];autosize=1;strokeColor=none;fillColor=none;" vertex="1" parent="1">
          <mxGeometry x="512" y="1390" width="30" height="30" as="geometry" />
        </mxCell>
        <mxCell id="nXuBNPTSIWch-IA69Y4a-378" value="1" style="text;html=1;align=center;verticalAlign=middle;resizable=0;points=[];autosize=1;strokeColor=none;fillColor=none;" vertex="1" parent="1">
          <mxGeometry x="521" y="1301" width="30" height="30" as="geometry" />
        </mxCell>
        <mxCell id="nXuBNPTSIWch-IA69Y4a-379" value="*" style="text;html=1;align=center;verticalAlign=middle;resizable=0;points=[];autosize=1;strokeColor=none;fillColor=none;" vertex="1" parent="1">
          <mxGeometry x="680.5" y="1391" width="30" height="30" as="geometry" />
        </mxCell>
      </root>
    </mxGraphModel>
  </diagram>
</mxfile>
